<svg width="275" height="481" viewBox="0 0 275 481" fill="none" xmlns="http://www.w3.org/2000/svg">
<path d="M272.375 384.435C267.798 387.587 266.171 392.819 264.26 397.463C258.946 410.259 250.136 421.3 238.84 429.322C232.861 425.026 228.68 418.672 227.102 411.481C225.56 399.576 226.566 387.57 225.425 375.565C224.386 365.135 221.804 355.98 215.532 347.697C213.788 345.495 212.535 342.945 211.86 340.218C210.67 331.667 211.307 323.065 211.273 314.496C211.273 293.185 209.949 271.923 207.92 250.779C207.735 249.87 207.823 248.927 208.172 248.068C208.521 247.209 209.116 246.472 209.882 245.95C214.611 243.816 218.996 240.991 222.893 237.566C227.153 234.665 229.248 228.83 235.335 228.427C238.487 230.373 239.343 233.693 240.231 236.811C252.103 279.251 266.221 320.919 282.151 361.966C283.174 364.565 284.331 367.147 283.828 370.048C280.944 375.498 276.466 379.807 272.375 384.435Z" fill="#AEE95A"/>
<path d="M196.735 430.043C176.398 441.317 153.014 445.866 129.933 443.038C128.256 441.042 129.01 438.846 129.48 436.683C134.51 413.845 139.54 390.991 143.565 367.935C144.403 363.139 144.906 357.874 149.048 354.269C153.961 352.743 156.09 356.65 158.488 359.45C172.757 376.067 186.993 392.768 201.565 411.179C198.898 402.091 195.025 394.914 194.405 386.782C194.136 383.177 191.051 381.919 187.798 381.5C185.855 381.265 183.997 380.568 182.378 379.468C180.759 378.369 179.427 376.898 178.492 375.179C168.884 359.199 161.406 342.062 152.083 325.915C150.914 323.988 150.331 321.762 150.406 319.51C153.139 299.589 153.76 279.518 155.671 259.531C155.808 255.471 157.268 251.567 159.829 248.414C162.596 247.391 165.229 248.414 167.895 248.951C175.038 250.929 182.717 247.894 189.693 251.248C191.722 255.44 187.848 255.356 185.97 255.574C180.336 256.262 180.001 259.33 181.343 263.79C183.673 271.52 185.769 279.3 185.887 287.466C187.178 307.588 192.711 326.854 196.568 346.439C198.563 356.499 201.112 366.56 203.359 376.621C206.595 387.721 208.657 399.14 212.464 410.156C213.989 414.533 214.61 418.775 210.703 422.38C206.796 425.985 202.503 429.389 196.735 430.043Z" fill="#AEE95A"/>
<path d="M190.028 252.572C182.382 251.231 174.417 253.562 166.889 250.678C168.2 240.596 168.024 230.376 166.369 220.345C165.43 215.398 166.771 210.502 166.855 205.606C166.808 204.151 167.077 202.704 167.643 201.364C166.936 203.525 166.635 205.799 166.755 208.071C164.323 221.585 161.07 234.899 157.65 248.146C148.998 250.493 142.559 246.05 136.288 241.137C135.843 240.426 135.578 239.618 135.517 238.783C135.456 237.947 135.599 237.109 135.935 236.341C141.2 224.252 145.007 211.458 151.747 201.213C145.04 212.061 137.931 224 127.837 233.742C122.085 230.02 120.945 225.912 126.311 220.714C128.301 218.443 130.08 215.996 131.626 213.403C136.656 201.883 145.191 192.879 152.603 183.053C155.319 180.89 155.386 178.023 155.051 174.87C154.246 167.537 153.201 160.271 151.915 153.072C151.915 143.917 147.488 136.221 143.531 128.407C142.408 122.085 145.107 116.921 148.93 112.394C152.167 108.571 155.017 104.479 158.119 100.656C161.204 98.8621 164.374 97.4033 168.046 98.795C168.378 99.0341 168.661 99.3363 168.876 99.6844C169.092 100.033 169.237 100.42 169.303 100.824C169.001 104.982 165.329 108.034 165.648 112.561C165.916 116.569 165.916 120.694 170.511 122.069C172.464 122.804 174.592 122.943 176.625 122.469C178.657 121.994 180.504 120.927 181.929 119.403C184.763 116.468 185.417 112.528 187.58 109.342C192.329 104.128 198.643 100.597 205.572 99.2813C206.808 100.157 207.844 101.285 208.61 102.592C209.377 103.899 209.856 105.354 210.015 106.86C209.789 111.125 209.285 115.371 208.506 119.57C205.639 126.529 201.967 133.119 198.647 139.876C194.754 147.984 193.309 157.051 194.488 165.967C194.729 169.162 195.667 172.265 197.237 175.058C198.807 177.851 200.971 180.266 203.577 182.131C215.465 190.934 223.044 203.426 230.489 215.918C231.059 216.717 231.428 217.642 231.562 218.615C231.696 219.587 231.593 220.578 231.26 221.502C228.158 223.816 226.666 221.032 225.308 219.272C219.925 212.263 213.989 205.673 209.764 199.15C213.117 212.263 220.495 225.107 223.916 239.393C220.497 242.773 216.342 245.315 211.776 246.821C208.02 245.446 206.394 242.193 204.817 238.923C199.116 227.085 192.392 215.75 187.966 203.711C192.761 218.903 194.371 234.949 196.35 250.929C196.45 251.717 195.713 252.421 195.092 253.008C194.302 253.453 193.396 253.649 192.493 253.571C191.59 253.494 190.731 253.146 190.028 252.572V252.572Z" fill="#4CB327"/>
<path d="M282.284 240.852C285.637 257.804 294.189 272.476 303.11 286.879C314.555 305.645 328.052 323.079 343.352 338.859C347.158 342.75 348.751 344.913 341.675 346.539C328.605 349.469 316.49 355.665 306.463 364.548C301.969 365.118 301.131 361.194 299.622 358.562C291.339 344.393 283.625 329.889 276.683 314.965C257.819 274.633 242.454 232.756 230.757 189.794C229.851 186.44 226.833 182.433 231.796 179.465C235.888 180.79 236.407 184.73 237.749 187.849C243.014 200.358 248.463 212.766 253.728 225.275C255.539 229.567 257.971 232.233 263.034 231.663C271.217 230.825 277.17 234.983 282.284 240.852Z" fill="#AEE95A"/>
<path d="M185.233 28.8581C187.262 20.0048 194.875 14.354 205.807 14.9241C218.484 15.6116 230.959 18.2777 239.343 28.8246C243.065 33.486 245.832 28.003 248.951 29.0929C252.304 29.4618 255.658 29.0929 259.012 29.2438C268.854 31.1386 273.683 38.6002 277.825 46.5985C282.537 55.7034 286.36 65.3281 291.524 74.1647C299.422 87.6963 308.292 90.1779 322.31 83.6385C325.177 82.297 329.319 81.509 329.386 77.4679C329.453 73.4269 324.775 74.1144 322.779 71.9849C331.348 68.6313 337.099 69.8721 341.459 75.9085C346.707 83.1857 345.366 89.8929 339.614 96.1975H339.346L339.48 95.9795C341.828 108.773 328.732 123.194 313.658 124.485C287.97 126.581 269.508 110.819 265.886 83.7223C264.713 74.8857 264.042 65.9652 262.348 57.2292C260.873 49.667 257.234 42.9934 249.84 39.3715C246.017 37.5103 242.764 36.739 241.456 42.9095C240.26 47.8014 237.83 52.3046 234.397 55.9884C231.898 55.1468 229.599 53.7999 227.643 52.0316C225.687 50.2632 224.116 48.1113 223.028 45.7098C223.028 41.1657 221.217 37.7786 216.187 38.6505C207.669 40.1261 199.788 37.5774 191.756 35.7329C188.822 34.1065 184.915 33.4357 185.233 28.8581Z" fill="#4CB327"/>
<path d="M103.524 418.037C93.6986 412.185 83.5205 415.908 73.5437 417.149C66.9875 417.97 60.5822 420.016 53.4224 421.642C53.4224 418.037 55.9543 416.394 57.4466 414.432C80.0389 384.244 97.3067 350.417 108.505 314.412C109.158 312.367 109.427 309.986 111.523 308.644C122.841 314.312 129.33 324.272 134.998 335.003C135.484 341.861 132.835 348.149 131.258 354.605C126.865 372.496 121.064 389.985 116.167 407.708C115.258 411.81 113.479 415.67 110.953 419.027C108.136 421.441 105.889 419.194 103.524 418.037Z" fill="#AEE95A"/>
<path d="M231.831 179.985C230.389 190.046 235.268 198.815 238.169 207.719C244.172 226.164 249.454 244.927 256.798 263.053C270.715 297.326 285.706 331.063 304.536 362.972C305.064 363.625 305.693 364.191 306.397 364.649C304.083 372.378 301.786 380.125 297.259 386.916C292.346 394.26 288.405 394.847 280.742 389.716C277.037 383.127 281.681 377.342 282.503 371.272C279.049 357.204 272.66 344.192 267.915 330.576C257.569 300.948 247.559 271.202 239.007 240.986C237.8 236.727 237.331 232.25 234.145 228.762C233.123 228.249 232.312 227.396 231.85 226.349C231.388 225.303 231.304 224.129 231.613 223.028C229.366 209.379 224.201 196.468 221.921 182.785C220.647 175.139 219.255 167.476 217.36 159.931C216.488 156.46 215.851 152.754 219.037 149.87C226.633 151.765 225.493 159.931 229.5 164.408C229.131 169.606 234.212 174.234 231.831 179.985Z" fill="#A0D749"/>
<path d="M108.302 419.58C114.875 410.559 115.914 399.459 119 389.281C124.499 371.021 130.737 352.895 133.42 333.947C137.524 335.765 141.17 338.476 144.094 341.881C147.018 345.286 149.145 349.301 150.322 353.633C144.185 367.969 143.732 383.597 140.077 398.503C136.421 413.41 133.37 428.232 130.016 443.089C121.676 443.23 113.393 441.702 105.652 438.595C100.521 436.533 97.8218 433.313 101.226 427.713C104.881 426.17 105.149 421.609 108.302 419.58Z" fill="#9FD749"/>
<path d="M213.336 341.157C225.694 353.112 228.31 368.438 228.427 384.652C228.511 394.109 228.829 403.55 229.047 412.99C231.451 421.414 231.808 430.29 230.087 438.879C240.483 446.509 240.265 446.458 236.14 459.42C234.816 463.545 234.966 468.156 234.463 472.532C234.078 475.4 235.034 478.803 230.607 481C227.706 468.223 224.855 455.681 221.988 443.138C217.461 438.997 217.662 433.078 216.472 427.796C212.481 410.005 207.752 392.416 203.275 374.743C201.749 365.772 199.067 357.053 197.105 348.183C196.401 345.03 194.757 341.861 197.105 338.675C199.816 337.789 202.697 337.552 205.516 337.983C208.335 338.414 211.014 339.501 213.336 341.157V341.157Z" fill="#0D5523"/>
<path d="M150.322 353.583C145.244 346.564 139.59 339.979 133.42 333.897C126.827 324.922 119.538 316.479 111.622 308.645L109.761 303.95C116.468 296.924 124.198 297.712 132.33 300.513C134.679 301.525 136.925 302.76 139.038 304.202C145.258 308.176 150.087 313.239 151.898 320.668C161.177 338.151 170.438 355.651 179.683 373.167C181.779 377.141 184.243 379.875 189.458 379.17C193.181 378.634 196.735 380.998 196.836 384.519C197.104 394.027 201.045 402.31 204.063 410.945C204.516 412.236 204.365 413.678 202.504 415.355C185.266 394.563 168.582 373.385 150.322 353.583Z" fill="#0D5523"/>
<path d="M133.252 302.675C125.237 299.69 117.424 300.73 109.778 303.949C113.578 292.771 117.39 281.592 121.213 270.414C123.427 268.351 122.789 265.383 123.762 262.818C126.394 254.702 127.719 246.05 132.448 238.756C134.376 237.348 135.516 238.505 136.556 239.997C142.763 243.82 149.563 246.586 156.677 248.18C158.22 247.626 159.611 247.509 160.265 249.437C159.226 252.573 158.169 255.692 157.13 258.827C155.855 269.726 149.853 278.613 144.873 287.936C142.86 290.887 141.519 294.174 139.708 297.259C138.233 299.891 137.126 302.993 133.252 302.675Z" fill="#F3BB82"/>
<path d="M242.143 119.806C250.951 147.35 259.749 174.91 268.535 202.488C271.486 211.727 274.37 221.016 277.288 230.272C266.204 229.685 262.197 226.835 258.726 217.009C253.444 202.002 248.917 186.827 244.54 171.451C243.132 166.538 241.354 161.943 237.179 158.674C237.062 147.439 232.719 137.177 229.734 126.597C228.779 123.243 226.683 119.89 228.41 116.218C231.763 113.887 235.117 115.882 238.319 116.486C239.153 116.742 239.924 117.17 240.582 117.742C241.24 118.313 241.772 119.017 242.143 119.806V119.806Z" fill="#AEE859"/>
<path d="M237.717 157.366C242.311 157.266 243.518 160.334 244.625 164.073C249.655 180.841 254.92 197.508 259.9 214.293C261.862 220.883 263.69 227.053 272.292 227.422C273.968 227.422 275.645 229.267 277.322 230.239C278.311 234.079 284.163 235.638 282.352 240.82C274.857 237.097 267.949 231.949 258.525 234.112C254.551 235.001 253.495 230.44 252.254 227.405C245.43 211.61 238.689 195.798 231.898 179.969C231.479 174.788 226.13 170.714 228.545 164.878C229.115 159.429 231.881 156.511 237.717 157.366Z" fill="#0E5523"/>
<path d="M153.19 184.613L131.626 213.403C134.527 187.111 138.233 160.886 138.333 134.36C138.467 130.084 140.345 127.653 144.957 128.055C150.406 135.45 154.38 143.364 153.525 152.922C154.715 163.502 155.286 174.066 153.19 184.613Z" fill="#AEE95A"/>
<path d="M110.029 141.838C94.7033 137.914 84.2234 126.747 73.1399 116.686C67.4053 111.438 62.09 108.085 54.0247 110.13C46.3953 112.075 41.7339 107.229 37.6426 100.824C46.5798 104.614 54.9301 101.864 63.4146 100.053C65.0914 99.7175 67.1203 100.925 68.7971 101.73C83.6533 109.359 98.4761 117.089 113.316 124.769C119.05 131.845 117.955 137.534 110.029 141.838Z" fill="#0E5623"/>
<path d="M230.422 60.6319C230.422 68.3116 225.761 70.6926 219.037 72.2017C211.86 73.8785 204.667 76.5949 203.946 85.8842C199.804 93.0105 192.292 95.5928 186.306 91.602C182.584 89.1204 180.354 85.8339 183.69 81.3401C184.19 81.1738 184.708 81.0724 185.233 81.0383C189.475 81.3066 193.718 81.0383 196.618 80.9377C193.734 81.3401 189.492 80.6359 185.267 80.9377C185.552 75.79 179.599 74.7169 178.459 70.0554C176.782 63.3483 178.107 56.8927 179.079 50.3533C186.34 49.2969 193.315 48.1399 197.641 56.7083C199.57 60.5146 204.466 61.2691 208.423 62.6273C213.286 63.8178 218.115 65.2431 223.061 63.0465C225.325 61.7218 227.404 59.7768 230.422 60.6319Z" fill="#F2B981"/>
<path d="M110.029 141.838C115.344 136.959 115.495 131.09 113.382 124.768C122.856 119.604 131.827 113.752 138.417 104.982C141.2 100.908 146.012 103.088 149.567 101.361C152.552 101.126 155.62 99.164 158.437 101.83C157.985 105.988 154.95 108.537 152.384 111.287C147.974 116.049 144.923 121.348 144.99 128.055C142.337 129.628 140.078 131.784 138.383 134.36C132.095 136.338 127.048 141.067 120.391 142.224C116.82 142.878 113.416 143.749 110.029 141.838Z" fill="#F2BB82"/>
<path d="M230.423 60.6317L223.816 64.3206C218.903 65.9974 213.923 64.9578 208.96 64.6895C202.253 63.0128 195.462 61.336 193.098 53.4384C192.36 50.9567 190.683 50.8226 188.57 51.7616C185.217 53.103 182.132 51.8622 179.08 50.504C175.575 45.809 174.955 40.6781 175.726 34.8932C176.565 28.4544 179.164 26.2746 185.267 28.9406L191.874 34.2728C196.401 38.6827 201.582 39.9738 208.021 39.4876C214.007 39.0516 220.127 40.6949 223.867 46.4965C227.79 49.2632 231.814 51.879 234.43 56.0709L230.423 60.6317Z" fill="#0D5621"/>
<path d="M22.3679 6.45585C22.5523 4.87968 22.72 3.28674 22.9045 1.71057C25.5706 16.2147 35.0443 26.1412 44.5852 36.0677C48.3439 39.811 51.4649 44.144 53.8243 48.8951C57.9659 57.6814 56.8257 63.7513 49.7497 70.5255C50.4875 72.2023 49.7497 72.7724 48.0729 72.5544C47.9093 72.3769 47.7941 72.1603 47.7383 71.9254C47.6825 71.6904 47.688 71.4452 47.7543 71.213C42.4893 63.0639 36.8217 55.2165 31.171 47.3357C22.3679 35.0449 18.8467 21.4798 22.3679 6.45585Z" fill="#3A9918"/>
<path d="M22.3679 6.45532C21.944 15.6124 23.3428 24.7624 26.4831 33.3746C29.6235 41.9868 34.4428 49.8896 40.6615 56.6245C44.1827 60.5314 47.9387 65.1258 47.7375 71.2125C43.1431 70.0723 38.4649 69.2506 34.0047 67.7415C22.7032 63.9353 16.0297 56.0041 14.269 44.166C15.3768 40.904 15.3768 37.3675 14.269 34.1054C15.1074 24.3298 18.461 15.3087 22.3679 6.45532Z" fill="#4CB428"/>
<path d="M130.05 102.736C128.374 98.3932 132.012 96.817 134.41 94.8049C144.655 86.2198 157.08 83.7549 169.874 82.3297C180.857 81.4577 182.299 82.7824 179.75 91.401C172.037 98.8459 161.524 98.9633 152.083 101.864C149.402 102.582 146.681 103.142 143.934 103.541C139.306 103.222 134.578 104.597 130.05 102.736Z" fill="#227565"/>
<path d="M178.476 90.7806C182.701 80.7199 174.183 83.671 169.874 82.3967C174.418 81.3068 178.878 79.0431 183.691 81.4074C184.462 90.8812 191.488 94.4695 199.402 89.4056C200.995 88.3828 202.437 87.1084 203.946 85.9514C208.39 89.1708 215.834 85.4484 218.702 92.3064C216.455 97.1523 211.71 98.4602 207.383 100.372C206.59 100.442 205.793 100.285 205.086 99.919L188.52 109.426C179.868 101.042 179.868 101.042 168.398 101.042C168.398 100.506 168.264 99.9861 168.18 99.3657C170.176 94.7881 176.078 94.8048 178.476 90.7806Z" fill="#ADE859"/>
<path d="M205.321 374.425C209.982 393.25 214.638 412.08 219.289 430.916C220.278 434.974 221.066 439.065 221.938 443.14C214.61 444.045 206.26 449.193 201.733 438.31C202.152 431.872 207.836 427.629 208.792 421.425C211.995 418.86 212.414 416.009 210.989 412.035C207.076 400.874 204.082 389.411 202.035 377.762C203.175 376.689 202.236 373.553 205.321 374.425Z" fill="#A0D64A"/>
<path d="M206.829 99.3985C210.787 97.0175 214.761 94.6364 218.701 92.2386C229.129 95.3133 238.315 101.612 244.943 110.23C246.619 112.41 249.822 114.456 247.441 118.078C245.429 119.168 243.283 118.631 241.17 118.631C235.167 115.63 228.309 115.278 222.222 112.494C216.873 108.386 209.227 106.978 206.829 99.3985Z" fill="#227565"/>
<path d="M136.522 240.064L133.504 238.941C130.268 239.829 129.362 237.398 128.272 235.252C128.105 234.749 127.971 234.246 127.853 233.743C134.678 220.63 145.325 210.15 153.994 197.994C148.181 212.034 142.357 226.057 136.522 240.064Z" fill="#227565"/>
<path d="M230.119 438.88C227.939 430.329 229.063 421.643 229.079 412.991L238.838 429.255C236.44 432.911 231.829 434.604 230.119 438.88Z" fill="#9ED549"/>
<path d="M128.274 235.252L133.505 238.941C130.599 247.179 127.709 255.418 124.836 263.656C123.277 264.109 122.539 263.656 123.059 261.98L128.274 235.252Z" fill="#B1E75C"/>
<path d="M282.502 371.072C285.62 377.594 279.148 383.212 280.741 389.516L272.357 384.352C273.43 378.215 277.689 374.425 282.502 371.072Z" fill="#88B632"/>
<path d="M208.792 421.425C211.307 421.425 211.441 422.85 210.368 424.594C207.551 429.188 204.617 433.749 201.733 438.31C200.056 435.56 198.379 432.81 196.702 430.043L208.792 421.425Z" fill="#89B833"/>
<path d="M48.0551 72.5539L49.7319 70.525C52.6495 75.2032 52.9849 80.3845 52.683 85.616C52.5154 88.3995 51.0063 89.6906 48.3402 89.2043C44.4165 88.5001 45.9424 86.3203 47.2838 84.4926C50.1343 80.6863 48.4408 76.595 48.0551 72.5539Z" fill="#54AF34"/>
<path d="M7.61127 76.0085C6.90703 81.7263 3.1343 78.3393 1.65874 77.3835C-1.30916 75.4552 0.300519 72.1184 1.89346 70.341C3.18458 68.9158 6.21953 66.9875 8.11429 70.341C9.15389 72.1855 13.6309 74.7006 7.59449 76.0085L7.10826 75.5055L7.61127 76.0085Z" fill="#D1E6C7"/>
<path d="M74.2128 83.5365C73.1504 83.4864 72.1429 83.0496 71.3801 82.3084C70.6173 81.5673 70.1518 80.5728 70.0712 79.5122C69.937 77.5001 70.9096 74.834 73.5421 74.9682C74.6376 74.9151 75.712 75.2833 76.5445 75.9974C77.3771 76.7115 77.9047 77.7171 78.0191 78.808C78.2873 81.6585 76.5603 82.7149 74.2128 83.5365Z" fill="#C7E4BD"/>
<path d="M108.301 419.581C107.647 423.789 107.48 428.434 101.175 427.713C101.946 424.471 102.729 421.246 103.523 418.038C105.803 416.395 107.228 417.518 108.301 419.581Z" fill="#8DB93A"/>
<path d="M67.6911 10.9492C67.7508 11.2911 67.7376 11.6418 67.6523 11.9782C67.5671 12.3147 67.4117 12.6293 67.1964 12.9016C66.9812 13.1739 66.7108 13.3976 66.4031 13.5581C66.0953 13.7187 65.7572 13.8124 65.4107 13.8332C64.9997 13.913 64.5769 13.9102 64.167 13.8248C63.7571 13.7394 63.3683 13.5733 63.0234 13.336C62.6784 13.0987 62.3842 12.7951 62.1578 12.4429C61.9315 12.0907 61.7775 11.6969 61.705 11.2845C61.6198 10.8773 61.6269 10.4561 61.7259 10.052C61.8249 9.64788 62.0133 9.2711 62.2771 8.94937C62.5409 8.62764 62.8735 8.36915 63.2504 8.19291C63.6273 8.01666 64.0389 7.92716 64.4549 7.93097C66.4 7.76329 67.339 9.13825 67.6911 10.9492Z" fill="#C6E2BD"/>
<path d="M6.97485 0C9.27203 0.586872 10.7812 1.24082 10.7644 3.35356C10.7476 5.46629 8.987 6.13701 7.41083 6.43883C5.28132 6.82449 4.34231 5.13094 4.50998 3.42063C4.55268 2.675 4.80731 1.95704 5.24393 1.35111C5.68056 0.74518 6.28105 0.276455 6.97485 0V0Z" fill="#C5DDB9"/>
<path d="M130.049 102.736H144.889C145.721 102.185 146.707 101.912 147.705 101.957C148.702 102.002 149.66 102.363 150.439 102.988C146.666 105.134 142.374 104.162 138.4 104.983C135.683 103.96 132.078 106.241 130.049 102.736Z" fill="#5B483C"/>
<path d="M67.5224 32.6638C69.6184 32.8985 70.1885 34.6424 70.2891 36.2018C70.3162 36.5475 70.2591 36.8945 70.1227 37.2133C69.9864 37.5321 69.7749 37.8131 69.5062 38.0323C69.2376 38.2514 68.9199 38.4023 68.5802 38.4719C68.2406 38.5415 67.8891 38.5278 67.5559 38.4319C67.1498 38.4029 66.7538 38.292 66.3916 38.1059C66.0295 37.9198 65.7088 37.6623 65.4487 37.349C65.1887 37.0357 64.9947 36.673 64.8785 36.2828C64.7623 35.8926 64.7262 35.4829 64.7725 35.0784C64.7572 34.7275 64.8208 34.3777 64.9586 34.0548C65.0965 33.7318 65.305 33.4438 65.5689 33.2122C65.8327 32.9805 66.1453 32.8109 66.4833 32.716C66.8214 32.6211 67.1765 32.6033 67.5224 32.6638Z" fill="#C0DCB4"/>
<path d="M25.1675 80.1836C23.1554 79.5129 21.8139 78.5068 21.8978 76.6121C22.0151 74.9353 22.6523 73.2585 24.9998 73.946C26.794 74.449 27.951 75.4551 27.5318 77.484C27.448 78.117 27.1788 78.7111 26.7581 79.1915C26.3374 79.6719 25.784 80.0171 25.1675 80.1836V80.1836Z" fill="#C9E4BC"/>
<path d="M51.4082 27.4493C49.7314 26.963 46.3779 28.9584 47.3672 24.6826C47.7193 23.0897 46.1767 20.6919 49.4128 20.3901C51.492 20.1889 54.4432 17.5898 54.4432 22.3351C52.9589 23.711 51.9048 25.4873 51.4082 27.4493V27.4493Z" fill="#C8E3B8"/>
<path d="M258.976 29.2428C257.545 30.3943 255.756 31.0095 253.919 30.9819C252.082 30.9544 250.312 30.2858 248.916 29.0919C250.475 28.2858 252.21 27.8777 253.965 27.904C255.72 27.9304 257.442 28.3903 258.976 29.2428V29.2428Z" fill="#3DB115"/>
<path d="M78.2202 53.8747C78.1413 53.5395 78.1418 53.1905 78.2215 52.8555C78.3013 52.5205 78.4581 52.2087 78.6795 51.945C78.9009 51.6812 79.1808 51.4728 79.497 51.3362C79.8131 51.1997 80.1567 51.1387 80.5005 51.1583C80.772 51.1331 81.0458 51.1624 81.3058 51.2444C81.5658 51.3265 81.8067 51.4597 82.0144 51.6362C82.2222 51.8128 82.3926 52.029 82.5156 52.2724C82.6386 52.5157 82.7117 52.7811 82.7306 53.0531C82.8129 53.3827 82.8164 53.7271 82.7408 54.0583C82.6651 54.3896 82.5126 54.6983 82.2954 54.9596C82.0782 55.2208 81.8025 55.4273 81.4907 55.5622C81.1789 55.697 80.8397 55.7566 80.5005 55.7359C80.227 55.7733 79.9487 55.754 79.6829 55.6793C79.4171 55.6045 79.1695 55.4758 78.9556 55.3012C78.7417 55.1266 78.566 54.9099 78.4395 54.6644C78.3129 54.419 78.2383 54.1502 78.2202 53.8747V53.8747Z" fill="#C4E1B9"/>
<path d="M31.1369 91.1503C28.387 91.0497 27.4983 89.4735 27.8839 86.9583C28.3367 83.9234 30.7345 84.4767 32.7634 84.3761C34.1048 87.0757 32.7801 89.1549 31.1369 91.1503Z" fill="#D2ECCA"/>
<path d="M5.3143 59.4076C5.59242 59.4097 5.86733 59.4672 6.12301 59.5767C6.37869 59.6861 6.61002 59.8454 6.80354 60.0451C6.99706 60.2449 7.14887 60.4812 7.25016 60.7402C7.35145 60.9992 7.40017 61.2758 7.39349 61.5539C7.39349 62.7611 6.62218 63.9014 5.4149 63.5995C4.91271 63.4176 4.4585 63.1237 4.08665 62.7402C3.71481 62.3568 3.43508 61.8937 3.26863 61.3862C2.96681 60.1621 4.09025 59.525 5.3143 59.4076Z" fill="#C2E1B5"/>
<path d="M68.5796 64.4557C69.6695 64.6066 70.8097 64.8581 70.6755 66.2498C70.6828 66.5857 70.6209 66.9194 70.4937 67.2303C70.3665 67.5411 70.1766 67.8225 69.936 68.0568C69.6953 68.2912 69.4091 68.4735 69.0949 68.5924C68.7808 68.7114 68.4455 68.7644 68.11 68.7482C67.7616 68.6592 67.4397 68.4879 67.1713 68.2486C66.9029 68.0094 66.6958 67.7092 66.5674 67.3733C66.165 65.7133 67.0872 64.8749 68.5796 64.4557Z" fill="#CCE9C5"/>
<path d="M51.4084 27.4488C48.4908 23.3574 50.2011 22.0831 54.4937 22.4184C54.5608 24.6988 54.6949 27.0966 51.4084 27.4488Z" fill="#F1F8EF"/>
<path d="M14.202 34.0717C15.4498 35.4499 16.1408 37.2428 16.1408 39.102C16.1408 40.9612 15.4498 42.754 14.202 44.1323C13.0277 40.8816 13.0277 37.3224 14.202 34.0717Z" fill="#41AD15"/>
<path d="M34.2891 84.3248C35.2496 84.8232 36.0326 85.6062 36.5309 86.5667C37.0292 87.5272 37.2184 88.6183 37.0726 89.6905C36.9828 90.1593 36.7688 90.5954 36.453 90.9532C36.1372 91.311 35.731 91.5775 35.277 91.7249C34.8231 91.8722 34.3379 91.895 33.8721 91.7908C33.4063 91.6866 32.9771 91.4593 32.6291 91.1325C31.9752 88.5671 33.1824 86.4543 34.2891 84.3248Z" fill="#D2ECCA"/>
<path d="M123.058 261.979L124.835 263.656C124.601 266.456 123.829 268.971 121.18 270.48C121.767 267.63 121.046 264.511 123.058 261.979Z" fill="#CFD26C"/>
<path d="M34.2884 84.3248C34.5638 86.7217 33.9687 89.1378 32.6116 91.1325H31.1192C30.8683 88.769 31.4623 86.3929 32.796 84.4254C33.2655 84.3416 33.7853 84.3248 34.2884 84.3248Z" fill="#EFF7EC"/>
<path d="M240.717 117.86L247.424 118.078C246.384 120.878 243.886 119.201 242.125 119.754L238.369 118.178C238.458 117.954 238.605 117.757 238.795 117.608C238.984 117.46 239.211 117.364 239.45 117.332C239.689 117.299 239.932 117.331 240.155 117.424C240.377 117.517 240.571 117.667 240.717 117.86V117.86Z" fill="#5F5147"/>
<path d="M213.335 341.157L197.238 339.682C194.086 337.552 193.767 333.981 193.13 330.812C190.213 316.106 186.155 301.669 183.69 286.88C183.69 278.395 181.191 270.38 178.576 262.483C176.312 255.776 177.352 252.422 185.283 253.562C186.909 253.502 188.513 253.167 190.028 252.573L195.293 251.785C199.284 248.431 203.677 246.319 208.959 248.431C211.003 251.097 212.042 254.398 211.893 257.754C212.329 285.572 214.878 313.323 213.335 341.157Z" fill="#F3BB82"/>
<path d="M208.959 248.447L195.293 251.801C192.152 234.496 189.022 217.17 185.903 199.821L187.077 199.284C195.27 215.046 203.481 230.807 211.708 246.569L208.959 248.447Z" fill="#227565"/>
<path d="M232.165 223.532C232.819 225.208 233.472 226.885 234.143 228.562C231.349 232.658 227.866 236.238 223.848 239.142C218.381 232.888 217.325 224.638 214.156 217.344C210.66 209.395 208.122 201.059 206.594 192.511L230.655 221.939C231.005 222.083 231.32 222.299 231.58 222.574C231.84 222.848 232.04 223.175 232.165 223.532Z" fill="#227563"/>
<path d="M143.397 287.332L157.097 258.827C160.45 265.534 156.46 272.241 156.46 278.948C156.46 291.256 154.565 303.563 153.341 315.837C152.999 317.449 152.482 319.017 151.798 320.516C147.472 315.351 144.336 309.13 138.25 305.559C138.77 299.254 141.469 293.436 143.397 287.332Z" fill="#A0D749"/>
<path d="M160.232 249.505L156.644 248.247C157.515 234.011 162.378 220.614 165.262 206.781C166.671 206.06 165.095 202.471 168.381 203.528C169.018 216.824 169.706 230.121 170.242 243.418C170.36 246.252 171.449 249.857 166.889 250.679L160.232 249.505Z" fill="#227564"/>
<path d="M183.69 286.879C189.542 304.133 193.013 322.008 197.238 339.681C199.944 351.262 202.638 362.843 205.32 374.424C204.231 375.531 203.141 376.654 201.967 377.777C195.26 355.493 191.353 332.588 186.758 309.834C185.283 302.222 183.237 294.727 183.69 286.879Z" fill="#9FD649"/>
<path d="M232.166 223.532L230.657 221.956C224.704 207.535 216.22 194.289 203.962 185.167C190.699 175.274 190.448 163.017 192.98 149.603C195.075 138.586 200.844 128.861 207.098 119.571C207.777 119.408 208.494 119.51 209.101 119.855C209.708 120.201 210.161 120.765 210.368 121.433C213.922 129.23 217.578 136.976 220.63 144.908C220.989 145.662 221.143 146.499 221.075 147.332C221.007 148.165 220.721 148.966 220.244 149.653C216.303 159.328 222.105 167.98 223.48 177.001C225.559 190.65 229.5 204.014 232.753 217.479C233.272 219.658 234.765 221.754 232.166 223.532Z" fill="#AEE95A"/>
<path d="M220.244 149.737C215.873 139.676 211.491 129.615 207.098 119.555C207.098 114.86 206.88 110.131 208.774 105.654C213.805 104.581 216.639 109.125 220.663 110.685C222.859 113.451 228.292 111.221 229.047 116.168C232.4 127.603 235.698 139.044 238.94 150.491C239.644 152.956 241.757 155.756 237.732 157.433C233.794 158.668 230.48 161.37 228.477 164.979C223.463 161.072 223.212 154.666 220.244 149.737Z" fill="#F2BB82"/>
<path d="M168.432 100.992C179.767 95.7265 183.959 97.4703 188.553 109.375C188.553 109.66 188.419 109.929 188.386 110.197C187.178 117.575 184.244 123.611 175.977 124.986C171.165 125.808 166.906 124.433 164.575 119.956C160.836 112.712 162.999 106.458 168.432 100.992Z" fill="#D6FA9B"/>
<path d="M153.19 184.612C149.953 174.015 154.129 163.502 153.542 152.921C156.61 161.305 156.057 170.242 158.019 178.794C158.74 181.93 155.956 183.623 153.19 184.612Z" fill="#A1D94C"/>
<path d="M150.439 102.987L144.889 102.735C156.392 99.6334 168.163 97.2859 178.424 90.78C177.435 96.5649 171.298 96.1793 168.163 99.3987L158.37 101.83L150.439 102.987Z" fill="#4F4D39"/>
<path d="M220.395 111.237L208.657 105.67C207.517 103.675 205.119 102.485 205.019 99.8353L206.779 99.3993C210.669 105.033 217.997 106.106 222.407 111.019C221.87 111.958 221.166 112.025 220.395 111.237Z" fill="#524F36"/>
<path d="M168.381 203.527L165.262 206.78C165.366 205.211 165.59 203.652 165.933 202.118C166.386 201.258 166.981 200.482 167.694 199.821C168.934 200.861 168.348 202.252 168.381 203.527Z" fill="#2E894E"/>
<path d="M223.832 46.4121C215.833 42.6896 207.885 38.4138 198.797 43.1926C196.718 44.2993 195.578 43.4106 195.444 41.4153C195.226 38.4474 193.18 36.5191 191.855 34.1884C200.776 34.8926 209.277 37.9108 218.768 36.0999C224.989 34.9094 226.749 40.5936 223.832 46.4121Z" fill="#F0B981"/>
<path d="M230.774 33.1501C220.109 32.7812 210.652 28.5222 201.112 24.2967C199.267 23.4751 196.299 22.4187 198.395 19.6017C199.904 17.5896 203.677 15.9463 204.985 17.7573C211.474 26.6442 222.205 27.7173 230.774 33.1501Z" fill="#72C04E"/>
<path d="M143.397 287.332C143.397 293.956 142.29 300.243 138.249 305.777L133.219 302.742C138.669 298.902 138.786 291.642 143.397 287.332Z" fill="#AEE35A"/>
<path d="M220.393 111.237L222.456 111.019C228.797 112.559 234.929 114.862 240.716 117.877L238.385 118.23L229.012 116.1L220.393 111.237Z" fill="#575038"/>
<path d="M196.87 66.5339C191.655 70.0216 187.882 69.7198 184.529 66.165C183.288 64.8572 182.852 62.3923 184.327 61.7551C189.492 59.4915 191.906 64.6727 196.87 66.5339Z" fill="#ED6158"/>
<path d="M185.266 81.0053C189.86 76.8301 195.142 80.6028 200.038 80.1501C195.36 83.2689 190.464 84.0402 185.232 81.0388L185.266 81.0053Z" fill="#E39061"/>
<path d="M208.959 64.6892L223.815 64.3203C218.986 69.2836 213.922 65.0749 208.959 64.6892Z" fill="#ED8667"/>
<path d="M208.355 47.3016C212.614 48.6934 218.718 48.9784 219.455 54.9645C219.942 58.8546 215.448 59.7769 211.994 59.5253C206.846 59.1397 201.296 57.8486 200.474 52.0637C199.904 47.9053 204.666 47.8382 208.355 47.3016Z" fill="#EDB981"/>
<path d="M183.908 37.1071C185.231 36.9058 186.584 37.1616 187.742 37.8322C188.9 38.5028 189.796 39.5482 190.28 40.796C189.978 42.9423 190.967 45.1389 190.012 47.2684C186.775 47.587 183.439 48.2241 181.628 44.4346C181.213 43.1266 181.209 41.7228 181.616 40.4125C182.024 39.1022 182.824 37.9485 183.908 37.1071V37.1071Z" fill="#DDAB79"/>
<path d="M190.012 47.2673C188.62 45.0372 187.363 42.8406 190.28 40.7949C192.645 43.0586 193.064 45.2719 190.012 47.2673Z" fill="#7F734C"/>
<path d="M183.907 37.1073C183.119 39.5554 182.348 42.0035 181.559 44.4348C179.849 41.1986 176.932 37.5768 183.907 37.1073Z" fill="#F1ECDB"/>
<path d="M7.61214 76.0083C5.93537 75.6394 3.47051 76.8635 3.21899 73.862C3.29125 73.4856 3.45859 73.1339 3.70512 72.8404C3.95165 72.5469 4.26918 72.3214 4.62748 72.1852C7.44447 71.9505 7.2097 74.2812 7.59536 76.0586L7.61214 76.0083Z" fill="#F0FCEE"/>
<path d="M166.587 113.333C167.073 107.163 169.84 103.373 175.658 102.837C181.208 102.334 183.757 105.654 183.79 110.885C183.79 116.67 180.789 120.426 175.038 121.03C169.286 121.633 167.542 117.559 166.587 113.333Z" fill="#ACE75A"/>
<path d="M207.701 49.4653C208.336 49.6213 208.887 50.0135 209.242 50.5619C209.597 51.1103 209.73 51.7736 209.613 52.4165C209.361 53.7746 208.674 55.0825 207.148 55.0658C205.622 55.049 205.22 53.5567 205.471 52.1817C205.723 50.8068 205.806 49.5156 207.701 49.4653Z" fill="#755435"/>
<path d="M175.39 116.385C172.355 118.816 171.717 115.982 170.946 114.188C169.269 110.231 172.623 109.158 175.004 107.481C179.783 110.281 175.457 113.417 175.39 116.385Z" fill="#4EB229"/>
<path d="M175.39 116.385C171.114 113.601 178.877 110.315 175.004 107.531C176.547 106.123 178.173 105.854 178.358 108.336C178.71 111.354 180.252 115.177 175.39 116.385Z" fill="#3F9A18"/>
</svg>
