<svg width="247" height="533" viewBox="0 0 247 533" fill="none" xmlns="http://www.w3.org/2000/svg">
<g filter="url(#filter0_d_1079_11924)">
<path d="M-46.5662 386.152C-49.0331 389.602 -52.1899 392.88 -53.8287 396.726C-57.0545 404.403 -61.3671 404.696 -67.6291 400.504C-93.7118 383.288 -114.844 363.002 -111.687 328.294C-109.962 308.645 -101.06 291.481 -90.3134 275.318C-62.9024 234.072 -28.4705 199.243 8.89402 167.088C9.32702 167.079 9.75744 167.157 10.1593 167.318C10.5613 167.48 10.9263 167.721 11.2326 168.027C11.5388 168.333 11.7799 168.698 11.9413 169.1C12.1027 169.502 12.181 169.933 12.1716 170.366C13.4654 181.113 15.6217 191.67 13.0341 202.745C8.273 223.1 3.83963 243.628 7.73824 264.847C4.90916 273.472 6.34095 282.563 6.01319 291.43C5.77168 306.041 12.9134 317.995 20.5381 329.484C28.1628 340.973 36.0635 352.324 45.603 362.26C47.8283 364.571 51.1404 367.038 48.1561 371.058C37.9783 369.729 28.9218 375.698 18.9338 375.56C13.5344 373.835 11.2401 368.884 7.82449 365.124C-7.07992 348.667 -18.1892 330.105 -21.5013 307.8C-23.5225 294.631 -23.2892 281.215 -20.8113 268.124C-28.1772 305.575 -15.3256 337.609 3.23586 367.28C8.01424 374.922 6.87571 377.423 -1.93928 377.923C-5.66538 378.148 -9.40873 377.716 -13.0486 378.838C-14.3753 379.153 -15.7423 379.263 -17.1024 379.165C-18.5619 379.162 -19.9618 378.586 -21.001 377.561C-33.8181 361.415 -49.9818 348.235 -60.7979 330.226C-64.1116 324.842 -66.2947 318.84 -67.2141 312.585C-68.1334 306.331 -67.7699 299.954 -66.1455 293.845C-61.1774 272.989 -49.7748 255.48 -36.8197 238.816C-35.6102 236.898 -34.2117 235.107 -32.6451 233.468C-34.2337 234.961 -35.599 236.675 -36.699 238.557C-47.3943 252.081 -57.0028 266.33 -63.5924 282.287C-71.8899 302.384 -73.9427 322.722 -63.0404 342.663C-58.3772 351.599 -51.4692 359.166 -42.9954 364.623C-39.2003 367.021 -34.6634 368.643 -32.2829 372.921C-35.2327 379.269 -40.9253 382.684 -46.5662 386.152Z" fill="#4CB327"/>
<path d="M7.03198 264.949C5.90152 263.872 5.01021 262.568 4.41585 261.124C3.82149 259.68 3.53736 258.127 3.58189 256.566C3.38429 238.542 5.66545 220.577 10.3613 203.175C13.8114 190.755 10.7753 179.025 8.87778 167.087C11.5516 159.894 9.82655 152.442 10.0336 145.11C10.4303 131.758 9.13653 118.372 10.7063 105.037C21.3008 107.909 32.3846 108.497 43.2235 106.763C47.7603 122.616 52.4352 138.434 56.7306 154.357C57.3861 156.789 58.9559 158.169 60.1807 159.997C58.9041 165.949 60.5947 171.021 64.0793 175.954C68.1504 181.681 72.2387 187.633 70.9795 195.361C66.0976 199.691 60.1634 203.193 59.4907 210.697C58.923 214.696 59.6355 218.772 61.5262 222.341C62.82 224.6 65.8561 226.636 63.4755 229.914C58.6454 232.001 54.1775 228.723 49.4681 229.017C41.2397 226.515 31.9762 226.74 27.2495 221.72C32.0267 225.306 37.7885 227.341 43.7582 227.55C55.4195 229.12 65.7008 233.036 72.1352 243.783C73.291 245.715 75.0333 247.233 74.9298 249.803C69.5132 256.514 69.0819 265.657 63.8205 272.453C56.4373 277.628 47.9673 276.611 39.6699 276.369C31.0927 275.858 22.6338 274.115 14.5532 271.194C11.3446 270.107 7.87725 269.038 7.03198 264.949Z" fill="#AEE95A"/>
<path d="M63.7161 270.092C66.1311 262.743 66.8902 254.566 74.0663 249.667C79.8107 244.958 81.7946 245.406 83.1746 251.703C80.5698 284.72 94.3184 306.904 125.128 318.824C143.603 326.018 162.906 330.623 181.882 336.195C197.942 340.905 213.433 346.942 226.733 357.413C234.254 363.33 240.671 370.179 243 380.684C227.354 380.684 221.937 392.604 215.693 403.541C190.248 399.763 165.287 394.088 141.274 384.738C139.173 383.215 137.483 381.194 136.358 378.856C117.158 346.425 94.6806 316.306 71.4615 286.686C68.943 281.149 65.1651 276.164 63.7161 270.092Z" fill="#4CB327"/>
<path d="M181.26 453.48C187.902 470.937 197.493 486.928 206.101 503.402C209.551 509.975 212.863 516.599 216.555 523.827C211.017 524.983 207.481 522.343 203.996 520.204C190.679 512.062 179.846 501.022 168.564 490.344C164.821 486.773 163.993 482.978 168.185 479.321C172.376 475.664 171.134 471.955 168.685 467.935C161.647 456.412 153.563 445.562 144.534 435.522C130.734 426.241 119.417 414.821 113.483 399.054C112.276 395.846 111.275 392.447 113.57 389.187C121.263 386.375 127.163 392.033 133.856 393.741C139.687 395.225 142.481 394.397 142.74 388.1C150.537 387.445 150.33 395.691 154.712 398.847C158.162 404.022 162.026 408.801 164.476 414.528C168.081 421.325 171.014 428.449 174.222 435.436C175.982 441.646 181.105 446.597 181.26 453.48Z" fill="#0D5523"/>
<path d="M91.5584 244.543L88.1083 244.784C76.8955 245.992 71.3926 243.215 67.5803 234.434C66.9075 232.882 66.1485 231.243 68.0115 229.88C82.1914 229.018 87.539 218.719 91.9724 207.454C99.1141 204.574 107.394 207.817 114.26 203.349C115.502 207.092 116.675 210.732 119.711 213.699C123.903 217.822 125.49 223.463 126.784 229.069C128.888 238.229 130.924 247.407 132.994 256.567C133.926 259.482 131.372 260.534 129.941 262.121C120.591 272.471 119.78 279.216 126.215 291.706C127.577 294.362 130.717 296.363 129.665 300.055C124.783 303.712 121.488 300.176 118.849 297.053C113.018 290.153 107.67 282.822 102.116 275.68C99.4936 264.743 98.2516 253.841 101.753 242.818C103.254 238.091 106.17 234.193 108.378 229.897C109.979 227.013 110.91 223.806 111.103 220.513C109.309 232.381 102.357 240.006 91.5584 244.543Z" fill="#AEE959"/>
<path d="M43.2557 106.711C32.0429 113.387 21.2786 111.49 10.7386 104.986C10.4798 100.26 13.6884 97.0339 16.0172 93.5665C27.0726 76.7928 39.2748 60.8037 52.5365 45.7137C57.0561 40.5386 58.7811 35.7947 57.5564 28.7738C56.0728 20.5453 53.2955 11.8683 58.4361 3.6226C59.2987 2.22531 59.4712 0.431262 61.4377 0C61.6102 2.65657 64.5773 1.9493 65.9573 4.01936C68.0318 7.09447 69.3814 10.6003 69.9043 14.2727C70.4272 17.9451 70.1099 21.6882 68.9762 25.2202C73.444 25.8584 73.9615 21.3906 76.8769 22.4946C75.9626 35.2427 72.7023 46.9385 64.6463 57.4095C59.4712 64.2235 58.1084 73.211 55.4518 81.3877C52.5192 90.3752 49.2416 99.1902 43.2557 106.711Z" fill="#0D5523"/>
<path d="M19.106 374.145C28.8007 372.937 37.6847 365.796 48.1385 370.126C48.7906 369.792 49.51 369.611 50.2422 369.597C50.9745 369.582 51.7005 369.735 52.3652 370.042C53.03 370.35 53.6161 370.804 54.0793 371.372C54.5424 371.939 54.8705 372.604 55.0387 373.317C59.9723 387.669 69.8913 397.192 83.157 403.73C83.0281 404.413 82.7138 405.049 82.2483 405.566C81.7829 406.083 81.1841 406.462 80.5176 406.662C73.446 408.013 66.1518 407.622 59.2651 405.524C56.5912 404.834 53.9692 403.799 51.2954 403.16C41.7041 400.452 31.8886 398.848 22.1421 396.95C15.4661 395.725 9.03171 393.172 2.78704 393.414C8.04844 406.369 12.3265 419.514 11.6538 433.814C8.84196 436.419 8.84196 436.419 3.23556 431.02C1.21726 429.467 -1.09431 428.242 -2.31909 425.845C-9.32347 412.38 -15.5159 398.509 -20.8633 384.306C-21.0891 382.922 -20.8426 381.502 -20.1636 380.276C-19.4845 379.049 -18.4125 378.087 -17.12 377.543L-13.6699 377.25C-2.57785 377.819 8.08294 373.748 19.106 374.145Z" fill="#0D5523"/>
<path d="M129.51 300.003C128.13 298.157 126.646 296.398 125.422 294.466C115.641 279.095 117.469 269.884 132.891 256.515C144.91 252.277 154.881 243.649 160.802 232.364C164.96 224.808 173.74 225.688 179.122 220.703C179.381 220.478 180.675 220.961 181.123 221.444C185.384 225.981 185.384 226.033 190.283 222.41C195.182 218.788 199.202 222.41 203.48 223.963C205.378 224.774 208.845 223.152 208.655 227.275C202.014 236.159 191.922 237.729 182.072 239.35C179.276 239.678 176.615 240.73 174.352 242.404C172.088 244.077 170.301 246.313 169.169 248.89C160.889 264.95 151.642 280.527 139.343 293.983C136.721 296.932 134.478 300.779 129.51 300.003Z" fill="#0D5523"/>
<path d="M81.0519 405.265L83.1737 403.282C87.7279 390.189 86.3133 377.785 79.7236 365.555C76.5496 359.638 72.2369 354.118 71.2019 347.166C71.2666 346.524 71.5047 345.912 71.8907 345.396C72.2766 344.879 72.7958 344.477 73.3927 344.233C74.4162 344.278 75.4155 344.558 76.3131 345.051C77.2107 345.545 77.9823 346.239 78.5679 347.08C89.1079 359.914 101.683 370.903 111.844 384.047C112.545 384.769 113.08 385.636 113.411 386.587C113.741 387.537 113.86 388.549 113.759 389.55C114.397 400.435 119.624 409.164 126.817 416.892C132.683 423.171 138.686 429.33 144.603 435.523L138.065 441.215C120.107 436.316 103.685 427.915 87.6071 418.79C82.1042 415.65 76.1528 412.959 71.8574 407.853C74.79 404.524 78.4644 407.163 81.0519 405.265Z" fill="#4BB327"/>
<path d="M181.261 453.479C177.19 448.304 175.12 441.956 172.36 436.022C169.98 429.001 175.12 424.395 177.76 418.961C179.83 414.648 182.935 410.129 176.345 406.782C168.651 404.798 160.664 403.78 153.506 400.02C150.136 395.949 146.766 391.883 143.397 387.824C140.982 386.737 139.74 385.236 141.568 382.649C163.511 390.222 185.626 397.122 208.845 399.899C211.847 400.244 214.52 400.503 215.866 403.625C209 423.498 199.167 441.3 181.261 453.479Z" fill="#46A224"/>
<path d="M-18.9649 384.408C-11.5644 399.934 -6.00976 416.373 3.28824 430.984C-13.0289 435.86 -27.2681 446.01 -37.1986 459.844C-39.1997 462.656 -40.3382 467.918 -44.7543 466.745C-48.8427 465.675 -49.5844 460.879 -50.1365 456.86C-52.586 438.902 -42.6152 425.171 -34.611 410.801C-30.1432 402.866 -24.3988 395.586 -22.1907 386.478C-22.1415 386.117 -22.0145 385.771 -21.8185 385.464C-21.6225 385.157 -21.3621 384.896 -21.0554 384.699C-20.7488 384.502 -20.403 384.374 -20.0421 384.324C-19.6811 384.274 -19.3136 384.302 -18.9649 384.408Z" fill="#4CB327"/>
<path d="M22.5562 394.725C32.4752 396.675 42.6184 397.641 52.1235 401.47C61.2489 414.184 75.1011 421.584 86.4001 431.848C90.9888 436.023 96.7504 439.025 98.9412 445.39C95.1461 449.944 89.695 450.738 84.3473 451.756C76.6881 452.187 70.823 457.534 63.6468 459.38C56.4706 461.226 48.8286 463.331 44.6712 453.895C43.136 450.772 44.6712 448.426 46.6205 446.201C48.1604 444.525 49.8023 442.947 51.5369 441.474C61.8872 432.521 61.8872 431.124 51.4507 423.482C51.6232 422.395 51.6749 421.981 50.2777 421.067C39.4444 413.977 28.4731 406.939 22.5562 394.725Z" fill="#46A224"/>
<path d="M81.0516 405.266C79.1886 407.715 76.2042 406.232 73.1854 407.491C91.4709 420.498 111.671 428.571 131.354 437.61C133.666 438.663 136.305 439.042 137.995 441.216C129.9 453.12 118.336 462.245 104.875 467.35C99.8546 469.213 94.714 470.369 91.8159 463.814C92.5404 459.656 96.3528 458.207 99.0093 455.792C102.097 452.98 104.65 450.1 102.977 445.442C100.665 439.87 95.4903 437.093 91.0914 433.746C82.8629 427.467 75.0485 420.705 66.9407 414.339C63.3871 411.562 58.6605 408.94 58.7295 403.196C66.0566 404.802 73.5541 405.498 81.0516 405.266Z" fill="#46A224"/>
<path d="M114.243 203.297C114.054 207.092 112.294 208.575 108.344 208.368C102.755 208.058 97.131 208.368 91.5073 208.368C86.5047 200.985 80.9328 194.447 70.9448 194.361C67.8782 186.203 63.7919 178.465 58.7832 171.332C56.1956 167.882 55.6436 163.224 60.1977 159.946C61.6992 161.974 63.6787 163.599 65.9601 164.676C68.2414 165.754 70.7539 166.251 73.2736 166.122C76.1372 170.228 76.2752 176.472 82.2611 178.197C86.2115 180.957 91.3003 181.32 95.1299 184.304C104.652 185.563 111.449 192.343 114.243 203.297Z" fill="#4CB427"/>
<path d="M22.5573 394.725C32.2521 404.092 41.2395 414.287 53.3494 420.808C53.5219 420.911 53.6254 421.153 53.7806 421.325L51.7278 422.412C43.4649 426.224 34.4774 425.862 25.7314 427.087C16.8646 425.103 12.7245 427.087 11.793 433.832C9.28135 420.991 5.96267 408.321 1.85673 395.898C0.545697 392.017 1.70148 390.43 5.70359 391.223C11.31 392.327 16.8819 393.569 22.5573 394.725Z" fill="#4BB427"/>
<path d="M179.536 187.789L180.985 182.614C184.763 171.919 192.646 163.794 199.029 154.841C204.812 146.658 207.751 136.805 207.395 126.792C207.395 122.927 207.395 119.443 210.587 116.734C214.602 125.546 217.528 134.815 219.298 144.335C222.576 162.983 212.398 179.492 193.854 182.286C184.056 183.77 181.606 187.841 182.52 196.328C177.966 194.707 181.796 190.204 179.536 187.789Z" fill="#4CB428"/>
<path d="M75.8273 163.482C71.6872 159.738 66.098 156.892 67.3228 149.819C70.0139 148.094 71.4284 149.664 72.6704 151.717C72.1874 148.871 69.2203 149.44 67.4953 148.267C67.4953 147.094 67.4953 145.921 67.4953 144.817C72.6704 143.092 75.5168 146.973 78.9841 149.388C79.7086 149.716 80.3814 150.095 81.0714 150.492C87.1781 155.133 93.5607 155.961 99.8572 151.182C106.154 146.404 112.278 152.442 118.505 151.579C118.772 154.711 118.858 157.856 118.764 160.998C117.608 175.16 111.432 179.973 97.1661 177.8C96.3954 178.227 95.5939 178.596 94.7683 178.904C85.0563 177.903 78.0698 173.642 75.8273 163.482Z" fill="#F2BA81"/>
<path d="M210.586 116.75C206.878 121.787 210.224 127.273 209.931 132.517C209.068 147.715 199.201 157.961 191.421 169.278C188.264 173.849 186.056 179.421 181.071 182.63C177.862 181.388 175.896 179.18 176.206 175.609C176.789 174.24 177.074 172.764 177.044 171.278C177.015 169.791 176.67 168.327 176.034 166.983C177.12 158.134 183.193 152.217 188.765 146.283C196.976 137.416 205.273 128.843 207.74 116.233C208.361 112.42 210.293 112.334 210.586 116.75Z" fill="#3A9817"/>
<path d="M25.6448 427.087C30.4404 421.429 37.4613 424.241 43.3265 422.55C45.8968 421.809 48.8639 422.412 51.6412 422.412C55.0913 424.896 61.474 423.844 61.9915 429.882C62.509 435.919 58.3517 438.938 54.0563 442.164C49.7609 445.39 45.4311 448.15 44.6548 453.894L25.6448 427.087Z" fill="#2D541C"/>
<path d="M118.521 151.424C116.986 152.114 114.761 153.839 114.071 153.339C106.515 148.164 100.736 154.374 94.2326 155.943C88.609 157.306 83.6063 156.15 79.8112 151.407C77.1719 149.406 77.2581 146.507 77.2581 143.644C78.2759 136.123 84.1583 134.622 90.1097 133.294C90.9386 133.13 91.7856 133.078 92.6283 133.138C97.0962 133.535 101.754 138.452 105.963 132.535C115.709 129.844 119.039 131.965 119.125 140.849C118.918 144.403 118.717 147.928 118.521 151.424Z" fill="#4CB328"/>
<path d="M64.6135 120.53C68.0807 116.451 72.5399 113.334 77.5614 111.479C82.583 109.624 87.9976 109.093 93.2838 109.938C97.8173 110.292 102.367 110.396 106.912 110.249C109.137 117.321 106.912 121.254 99.3905 124.152C93.5943 126.36 86.9011 125.619 81.6225 129.5C80.8736 129.86 80.0556 130.055 79.2247 130.069C74.2048 127.102 67.3046 127.05 64.6135 120.53Z" fill="#F5E768"/>
<path d="M79.3623 129.119H81.2425C81.7356 128.61 82.3252 128.205 82.9768 127.926C83.6284 127.648 84.329 127.502 85.0377 127.498C98.2343 127.498 110.482 124.634 120.643 115.543C123.955 124.168 126.215 132.914 119.125 140.988C117.624 132.983 112.811 131.724 105.997 134.536C101.667 136.709 97.3717 135.485 92.9901 134.536L92.3174 134.674L91.6446 134.519C87.056 135.554 82.5881 136.054 79.207 131.69C78.9772 131.293 78.8694 130.838 78.8971 130.381C78.9247 129.924 79.0865 129.485 79.3623 129.119Z" fill="#F3E568"/>
<path d="M91.5588 244.543C91.5586 243.828 91.7569 243.127 92.1315 242.517C92.5061 241.908 93.0424 241.415 93.6807 241.093C102.754 236.866 107.895 229.293 111.535 217.994C112.411 223.203 111.336 228.553 108.516 233.019C105.184 238.688 103.011 244.961 102.123 251.476C101.234 257.991 101.648 264.617 103.341 270.97C103.641 271.786 103.679 272.674 103.45 273.512C103.222 274.35 102.737 275.096 102.064 275.645C95.0089 266.52 96.5097 254.444 91.5588 244.543Z" fill="#9ED646"/>
<path d="M120.642 115.475C115.605 125.825 105.669 127.55 95.8362 128.964C91.0578 129.637 86.107 129.068 81.2423 128.964C80.5178 127.36 79.5173 125.911 82.5706 125.394C87.625 124.548 92.6276 123.289 97.6475 122.271C104.289 120.926 107.705 117.096 106.894 110.196C111.758 111.265 118.797 106.522 120.642 115.475Z" fill="#FAF1AB"/>
<path d="M67.4085 230.759C71.1001 240.161 78.3798 244.301 88.109 244.784C84.9694 246.026 84.6589 249.234 83.2271 251.684C81.5021 245.56 77.5172 248.7 74.1189 249.648C66.6149 238.574 57.3514 230.173 43.2061 229.12C43.6718 224.825 46.2594 226.826 48.3812 227.395C53.7288 226.585 58.7315 228.827 63.9066 229.12C65.8904 228.051 67.2705 228.103 67.4085 230.759Z" fill="#9DD646"/>
<path d="M103.272 444.906C107.464 447.407 107.878 450.357 104.134 453.531C100.098 456.981 95.9403 460.431 91.8174 463.761C89.2989 459.741 86.7975 455.722 84.2617 451.685C87.9361 447.183 93.9737 447.528 98.4761 444.785C98.7671 444.424 99.1375 444.134 99.5585 443.939C99.9795 443.744 100.44 443.648 100.904 443.66C101.368 443.672 101.823 443.79 102.233 444.006C102.644 444.222 102.999 444.53 103.272 444.906Z" fill="#2E561D"/>
<path d="M79.361 129.12V130.845C78.2225 132.138 76.0144 131.604 75.1864 133.363C74.8586 139.591 80.3615 145.025 77.4979 151.528C75.3416 147.509 71.2188 146.353 67.4582 144.628C64.8534 136.779 62.3865 128.913 64.5428 120.477C68.7347 124.755 75.5486 124.341 79.361 129.12Z" fill="#E4BB5A"/>
<path d="M75.8255 163.482C80.7246 170.193 85.8135 176.61 95.008 177.386C96.4571 183.182 92.3515 182.561 89.1429 182.061C85.9343 181.561 83.4502 180.008 80.5176 179.267C74.48 176.886 71.8924 172.591 73.2724 166.122C74.1177 165.242 74.963 164.362 75.8255 163.482Z" fill="#E29064"/>
<path d="M200.391 208.248C197.907 207.437 195.406 206.178 195.94 203.262C196.285 201.417 195.682 197.932 200.218 198.657C203.427 199.157 204.117 200.002 204.686 203.073C205.411 207.161 202.392 206.902 200.391 208.248Z" fill="#CCE8C3"/>
<path d="M178.777 130.137C182.572 130.758 184.867 131.638 184.694 135.605C184.71 136.251 184.597 136.893 184.362 137.494C184.127 138.095 183.774 138.643 183.324 139.105C182.874 139.568 182.336 139.936 181.742 140.188C181.148 140.441 180.509 140.572 179.864 140.574C179.225 140.636 178.58 140.565 177.971 140.365C177.361 140.165 176.799 139.841 176.321 139.413C175.842 138.985 175.458 138.462 175.192 137.878C174.926 137.294 174.784 136.661 174.775 136.019C174.723 133.449 175.862 130.413 178.777 130.137Z" fill="#CBE6C3"/>
<path d="M230.166 113.732C230.208 114.726 229.857 115.696 229.188 116.432C228.52 117.169 227.588 117.612 226.595 117.665C226.094 117.705 225.59 117.642 225.115 117.48C224.639 117.318 224.202 117.06 223.83 116.722C223.458 116.384 223.16 115.973 222.953 115.516C222.746 115.058 222.635 114.562 222.627 114.06C222.514 113.565 222.522 113.05 222.648 112.558C222.774 112.066 223.016 111.611 223.354 111.232C223.691 110.852 224.114 110.558 224.588 110.375C225.062 110.192 225.572 110.125 226.077 110.179C228.441 110.058 229.441 111.679 230.166 113.732Z" fill="#CEE6C1"/>
<path d="M179.535 187.788C182.485 189.944 179.69 194.084 182.467 196.309C183.399 198.535 186.573 199.984 185.279 202.865C184.969 203.589 182.605 203.951 181.398 203.641C177.948 202.744 178.914 199.57 178.879 197.206C178.879 194.067 179.345 190.927 179.535 187.788Z" fill="#48A628"/>
<path d="M158.835 194.706C158.248 199.105 155.868 197.759 153.66 196.276C153.16 196.01 152.731 195.63 152.406 195.167C152.082 194.703 151.872 194.17 151.793 193.61C151.713 193.05 151.768 192.479 151.952 191.944C152.135 191.409 152.443 190.925 152.849 190.531C154.143 189.186 156.782 187.53 158.576 189.721C159.369 190.687 163.872 192.843 158.904 194.723L158.835 194.706Z" fill="#CADDC2"/>
<path d="M225.922 186.166C226.146 179.835 231.822 183.423 232.425 183.958C232.909 184.393 233.296 184.925 233.561 185.52C233.826 186.114 233.962 186.757 233.962 187.408C233.962 188.059 233.826 188.702 233.561 189.297C233.296 189.891 232.909 190.423 232.425 190.858C231.132 191.824 226.508 195.723 225.922 189.237C227.336 188.236 227.267 187.167 225.922 186.166Z" fill="#C8E4BF"/>
<path d="M80.4829 179.266C83.2085 179.732 85.9168 180.319 88.6424 180.646C91.3679 180.974 94.4558 181.509 95.0078 177.386L97.1814 177.645L95.1113 184.252C89.2979 185.339 84.9335 182.199 80.4829 179.266Z" fill="#EFBE86"/>
<path d="M166.064 147.595C166.512 149.441 165.063 150.114 163.839 150.442C161.769 151.011 160.906 149.458 160.596 147.751C160.486 147.421 160.454 147.07 160.503 146.726C160.552 146.382 160.68 146.054 160.877 145.768C161.075 145.482 161.336 145.245 161.64 145.078C161.945 144.91 162.284 144.815 162.631 144.801C164.701 144.542 165.598 145.767 166.064 147.595Z" fill="#C2DDB1"/>
<path d="M163.854 181.216C163.509 182.683 162.974 184.045 161.077 183.39C160.389 183.17 159.799 182.718 159.408 182.11C159.018 181.502 158.851 180.778 158.938 180.06C158.925 179.702 159 179.347 159.157 179.025C159.313 178.702 159.547 178.423 159.836 178.212C160.126 178.001 160.462 177.864 160.817 177.814C161.172 177.763 161.533 177.8 161.87 177.921C163.595 178.318 163.837 179.733 163.854 181.216Z" fill="#C6E3BB"/>
<path d="M206.481 188.013C209.776 187.719 210.621 189.186 210.862 190.945C211.156 193.032 209.482 193.015 208.12 192.929C206.757 192.843 204.98 193.429 204.825 191.428C204.71 190.757 204.807 190.067 205.104 189.454C205.401 188.842 205.883 188.338 206.481 188.013Z" fill="#BDDDAD"/>
<path d="M163.235 122.168C163.787 120.564 164.218 118.839 166.444 118.942C166.798 118.906 167.155 118.952 167.489 119.076C167.822 119.2 168.123 119.398 168.368 119.656C168.613 119.915 168.795 120.225 168.901 120.565C169.007 120.905 169.034 121.264 168.98 121.616C168.98 123.444 168.1 125.066 165.961 124.704C164.719 124.497 163.149 124.083 163.235 122.168Z" fill="#C1DFB6"/>
<path d="M67.5451 148.181C73.531 147.56 74.3245 151.493 74.9283 156.323C70.0981 156.168 72.7029 148.44 67.3208 149.82C67.2205 149.264 67.299 148.69 67.5451 148.181Z" fill="#E59869"/>
<path d="M152.695 165.863C152.091 167.761 151.177 168.727 149.572 168.692C148.417 168.692 147.226 168.365 147.209 166.967C147.163 166.549 147.217 166.126 147.368 165.733C147.519 165.34 147.761 164.988 148.075 164.708C148.389 164.428 148.765 164.227 149.173 164.122C149.581 164.017 150.007 164.01 150.418 164.104C151.28 164.173 152.022 165.311 152.695 165.863Z" fill="#C0DFB7"/>
<path d="M229.458 177.094C226.491 176.594 226.112 175.61 226.181 174.437C226.167 174.158 226.221 173.879 226.339 173.625C226.457 173.372 226.634 173.15 226.857 172.981C227.079 172.811 227.34 172.698 227.615 172.651C227.891 172.604 228.174 172.625 228.44 172.712C228.706 172.746 228.962 172.833 229.193 172.967C229.425 173.102 229.627 173.281 229.788 173.495C229.949 173.709 230.065 173.953 230.13 174.213C230.195 174.472 230.207 174.742 230.165 175.007C230.045 175.736 229.806 176.442 229.458 177.094Z" fill="#BFE0B4"/>
<path d="M208.638 227.309C207.931 224.687 203.774 227.309 203.463 223.997C206.171 220.892 208.086 224.204 210.156 225.049C210.777 225.273 209.76 226.843 208.638 227.309Z" fill="#6E9278"/>
<path d="M225.922 186.167C227.647 186.356 230.51 185.08 230.2 188.185C230.027 190.065 227.491 189.341 225.904 189.272C225.904 188.237 225.922 187.167 225.922 186.167Z" fill="#F6FBF6"/>
<path d="M176.086 167.07C176.671 167.62 177.14 168.282 177.466 169.016C177.792 169.751 177.969 170.543 177.985 171.346C178.001 172.149 177.856 172.948 177.56 173.695C177.263 174.441 176.821 175.121 176.258 175.695C175.119 172.944 175.058 169.864 176.086 167.07Z" fill="#2A9104"/>
<path d="M189.524 114.266L187.523 115.801C187.178 115.215 186.505 114.559 186.608 114.076C186.712 113.593 187.54 113.076 188.057 112.576L189.524 114.266Z" fill="#EBF8E3"/>
<path d="M72.2898 346.597C76.2746 354.411 80.156 362.295 84.2616 370.04C88.7467 378.51 88.3672 387.567 87.8497 396.658C87.7398 398.081 87.2474 399.448 86.4244 400.614C85.6015 401.78 84.4787 402.702 83.1748 403.282C68.2704 401.557 60.7492 391.362 55.3843 378.786C53.8318 375.095 53.0038 371.058 48.2081 370.161C39.2724 357.344 28.1803 346.131 19.9691 332.779C12.3444 320.428 3.92619 308.37 3.90894 292.948C10.6539 289.653 17.2953 292.223 23.5745 294.035C32.636 296.493 41.0966 300.785 48.4324 306.645C52.1585 310.526 54.6253 315.27 57.7649 319.617C58.6102 320.946 59.3002 322.36 60.0074 323.757C61.9452 327.82 64.2551 331.695 66.9076 335.332C69.34 338.747 71.1611 342.559 72.2898 346.597Z" fill="#227464"/>
<path d="M48.4314 308.629C34.907 299.624 20.3304 293.638 3.89067 292.913C3.89067 285.547 3.75267 278.181 3.71817 270.815C3.71817 268.245 3.54566 265.52 7.06475 264.95C21.5896 272.782 37.2531 274.8 53.4513 273.955C57.1959 273.814 60.7928 272.458 63.698 270.091C68.8732 274.145 70.4775 280.286 72.8408 285.961C65.7854 293.621 58.2814 300.866 51.9677 309.215C51.3754 309.415 50.743 309.466 50.1263 309.363C49.5096 309.261 48.9276 309.009 48.4314 308.629Z" fill="#0D5523"/>
<path d="M19.1072 374.145C8.4292 378.233 -2.69736 377.302 -13.7549 377.25C-9.59754 374.248 -4.83641 376.37 -0.403042 375.732C1.2185 375.49 3.32305 376.301 4.16832 374.317C5.0136 372.334 2.97805 371.385 2.06378 370.022C-15.8422 343.215 -26.5893 314.217 -24.0189 281.424C-23.5187 275.369 -23.3289 268.969 -19.6373 263.242C-28.1763 307.92 -12.2369 343.732 19.1072 374.145Z" fill="#46A323"/>
<path d="M67.4087 230.759L63.9586 229.033C52.2801 215.112 55.0402 201.433 70.8588 194.377C82.4511 192.117 87.7988 195.757 91.4214 208.385C90.9901 223.824 83.4344 230.81 67.4087 230.759Z" fill="#D6FA9B"/>
<path d="M17.2778 210.197C15.6735 203.297 13.7242 196.518 20.2966 190.653C21.7629 189.359 20.5726 186.34 19.8309 184.115C18.3818 179.819 16.3808 175.593 17.6228 170.849C26.3861 184.926 26.5241 186.495 20.7279 206.713C19.1926 207.506 20.6589 211.319 17.2778 210.197Z" fill="#9ED746"/>
<path d="M61.818 245.266C47.2414 234.795 35.028 242.368 29.9219 264.242C27.6793 260.05 28.6626 252.581 32.4405 247.854C38.2366 240.678 45.2748 235.313 55.0731 236.452C58.9889 236.883 62.784 239.039 61.818 245.266Z" fill="#A0DB4A"/>
<path d="M48.4317 227.413C46.5514 227.413 44.4985 227.119 43.2565 229.138C34.9073 226.964 24.9365 227.275 22.9182 215.337C29.3526 223.807 39.3062 224.618 48.4317 227.413Z" fill="#A4DE4E"/>
<path d="M17.2778 210.197L20.7279 206.747C20.6244 208.834 21.2109 211.336 18.7959 212.336C17.6228 212.802 17.3813 211.198 17.2778 210.197Z" fill="#A4DE4E"/>
<path d="M51.8827 308.334C56.2848 298.783 63.6625 290.915 72.911 285.908C86.8149 300.692 97.6999 317.787 109.637 334.072C121.092 349.701 131.649 365.933 141.551 382.597L143.379 387.772C145.915 398.83 145.708 398.985 134.754 396.104C127.647 394.259 121.212 390.326 113.795 389.497L74.2565 344.646C69.4092 342.921 69.0814 337.142 65.2863 334.417C63.3197 330.76 60.9564 327.361 58.7139 323.877C58.1302 323.545 57.656 323.05 57.3496 322.452C57.0432 321.855 56.9178 321.181 56.9888 320.513C55.3328 316.545 50.8994 313.526 51.8827 308.334Z" fill="#227565"/>
<path d="M175.844 404.852C184.469 405.128 183.762 410.354 181.623 416.099C179.07 422.999 172.739 428.174 172.29 436.023L162.285 415.064C165.269 409.578 169.082 405.283 175.844 404.852Z" fill="#2C541C"/>
<path d="M175.844 404.851L162.285 415.064L153.367 400.021C161.285 399.901 168.392 403.161 175.844 404.851Z" fill="#4BB128"/>
<path d="M103.271 444.907H98.4754C83.1397 431.106 65.9755 419.531 51.2609 405.023C49.0873 402.884 48.794 402.056 52.0199 401.573L58.6786 403.385C68.6666 414.856 81.4319 423.085 93.0242 432.71C97.2629 436.091 101.328 439.683 105.203 443.475C106.359 444.544 104.065 444.493 103.271 444.907Z" fill="#4BB228"/>
<path d="M65.6819 334.123C69.7875 336.642 71.5988 341.024 74.1864 344.75L72.3233 346.595C68.6317 344.042 67.8382 339.695 65.5439 336.142C65.3365 335.986 65.1856 335.767 65.114 335.518C65.0424 335.269 65.054 335.004 65.1471 334.762C65.2851 334.33 65.4749 334.123 65.6819 334.123Z" fill="#3E9D33"/>
<path d="M102.805 169.037C99.234 168.847 95.6976 166.881 96.3359 163.638C97.2674 158.963 102.236 160.705 105.651 160.395C107.859 160.17 110.085 159.877 109.791 163.845C109.429 168.778 106.479 169.123 102.805 169.037Z" fill="#FAF3E8"/>
<path d="M77.551 151.528C77.6717 147.112 75.8259 143.265 74.1009 139.349C72.8934 136.485 71.0648 133.656 74.1009 130.827C77.551 134.088 78.0858 138.469 78.8275 142.799C79.1208 145.663 79.4313 148.526 79.7246 151.424L77.551 151.528Z" fill="#F7E76A"/>
<path d="M78.9139 142.799C76.4643 139.16 74.0665 135.485 74.1872 130.828C75.9123 128.861 77.6373 131.449 79.3624 130.828C83.1575 132.967 87.0733 134.761 91.593 134.502C87.0388 136.727 80.6734 136.21 78.9139 142.799Z" fill="#EEBE78"/>
<path d="M91.2811 152.77C88.0207 152.166 85.9162 150.562 85.8989 147.18C85.8989 143.506 87.7275 141.177 91.4881 141.264C92.2 141.22 92.9131 141.329 93.5796 141.583C94.2462 141.837 94.851 142.23 95.3537 142.736C95.8565 143.242 96.2456 143.849 96.4952 144.518C96.7448 145.186 96.8491 145.899 96.8012 146.611C96.853 150.337 94.5587 152.097 91.2811 152.77Z" fill="#E7B87F"/>
<path d="M116.45 145.422C115.881 148.251 114.984 151.097 111.844 150.873C111.123 150.825 110.419 150.626 109.779 150.29C109.139 149.953 108.576 149.487 108.128 148.919C107.679 148.352 107.354 147.697 107.174 146.997C106.995 146.296 106.963 145.566 107.083 144.853C107.273 142.317 107.773 139.401 111.361 139.677C114.949 139.953 115.984 142.558 116.45 145.422Z" fill="#D4B06E"/>
<path d="M92.9897 134.536H105.979C101.701 142.04 97.3196 135.174 92.9897 134.536Z" fill="#EEBE78"/>
<path d="M182.209 136.623C181.105 137.054 180.484 137.537 179.829 137.503C179.558 137.501 179.291 137.445 179.043 137.338C178.794 137.232 178.57 137.077 178.382 136.882C178.194 136.688 178.047 136.458 177.948 136.206C177.85 135.955 177.803 135.686 177.81 135.416C177.81 134.001 178.5 133.397 179.725 134.122C180.657 134.846 181.491 135.687 182.209 136.623Z" fill="#F3F9F1"/>
<path d="M158.836 194.706C157.283 194.396 155.265 195.327 154.437 193.171C154.433 192.926 154.493 192.684 154.611 192.47C154.729 192.255 154.901 192.075 155.109 191.946C157.317 191.515 157.956 193.309 158.836 194.723V194.706Z" fill="#E6FCDB"/>
<path d="M51.8825 308.335L57.0576 320.618C52.8485 317.581 50.882 312.976 48.5359 308.542L51.8825 308.335Z" fill="#3E9D3C"/>
<path d="M65.6825 334.125C65.6825 334.797 65.6825 335.47 65.5445 336.143C62.5256 332.503 59.3861 328.915 58.6443 323.981C62.1037 326.436 64.594 330.025 65.6825 334.125Z" fill="#369248"/>
<path d="M80.916 201.727C87.178 207.575 87.9715 213.492 82.9516 219.478C78.6045 224.653 73.1361 226.74 67.0812 222.704C61.0262 218.667 60.7847 212.785 63.9243 206.747C67.6849 199.502 72.6703 198.122 80.9505 201.762C80.1846 203.126 79.1728 204.337 77.9662 205.333C75.1199 208.783 66.4429 209.507 72.3253 217.132C77.2417 218.408 78.1732 214.976 78.7252 211.508C79.2772 208.041 78.846 204.694 80.916 201.727Z" fill="#ACE858"/>
<path d="M92.8342 148.216C92.472 148.423 91.7647 149.131 91.1092 149.062C89.7981 148.906 89.4876 147.751 89.5911 146.56C89.6946 145.37 90.7469 144.508 91.8855 144.973C93.024 145.439 93.4552 146.56 92.8342 148.216Z" fill="#5D4222"/>
<path d="M113.656 147.112C112.552 147.302 111.448 147.767 111.189 147.474C110.944 147.153 110.766 146.786 110.665 146.395C110.564 146.004 110.543 145.597 110.602 145.197C110.792 144.093 111.758 144.128 112.414 144.766C112.927 145.491 113.344 146.28 113.656 147.112Z" fill="#31270F"/>
<path d="M77.7577 203.538L80.9835 201.813C81.1731 205.433 81.1731 209.061 80.9835 212.681C80.397 219.271 77.3782 222.514 70.478 219.219C70.202 212.698 75.1011 208.644 77.7577 203.538Z" fill="#419E1A"/>
<path d="M77.7588 203.538C77.5345 209.765 73.6186 214.268 70.4963 219.063C65.3557 211.784 65.9077 210.593 77.7588 203.538Z" fill="#4DB528"/>
</g>
<defs>
<filter id="filter0_d_1079_11924" x="-116" y="0" width="363" height="532.108" filterUnits="userSpaceOnUse" color-interpolation-filters="sRGB">
<feFlood flood-opacity="0" result="BackgroundImageFix"/>
<feColorMatrix in="SourceAlpha" type="matrix" values="0 0 0 0 0 0 0 0 0 0 0 0 0 0 0 0 0 0 127 0" result="hardAlpha"/>
<feOffset dy="4"/>
<feGaussianBlur stdDeviation="2"/>
<feComposite in2="hardAlpha" operator="out"/>
<feColorMatrix type="matrix" values="0 0 0 0 0 0 0 0 0 0 0 0 0 0 0 0 0 0 0.25 0"/>
<feBlend mode="normal" in2="BackgroundImageFix" result="effect1_dropShadow_1079_11924"/>
<feBlend mode="normal" in="SourceGraphic" in2="effect1_dropShadow_1079_11924" result="shape"/>
</filter>
</defs>
</svg>
