<svg width="200" height="123" viewBox="0 0 200 123" fill="none" xmlns="http://www.w3.org/2000/svg">
<path opacity="0.24" d="M59.9993 13.7912C58.6424 13.7912 57.3637 14.1619 56.2402 14.8169C54.5106 10.1054 50.3474 6.78449 45.4855 6.78449C44.2032 6.78449 42.9697 7.01623 41.8164 7.44261C41.3219 3.24265 38.0895 0 34.1748 0C30.005 0 26.6093 3.67944 26.4724 8.27546C26.0854 8.17361 25.6817 8.11929 25.2666 8.11929C23.3989 8.11929 21.7613 9.2124 20.8431 10.8541C19.4353 9.39119 17.6751 8.83536 16.3487 9.00192C13.7127 9.3337 11.9109 12.0604 7.47356 14.3221C4.99641 15.5845 0.171229 16.9583 0.166748 17.2697H69.8334C66.8968 17.0465 62.5364 13.7912 59.9993 13.7912Z" fill="white"/>
<path opacity="0.24" d="M56.6564 54.5983C55.5742 54.5983 54.537 54.8115 53.5768 55.2036C52.8392 52.0803 50.2817 49.7755 47.239 49.7755C45.3247 49.7755 43.6013 50.6885 42.4031 52.143C41.4767 51.5275 40.4016 51.1582 39.2527 51.1183C38.8054 45.5967 34.6301 41.2698 29.5449 41.2698C25.4486 41.2698 21.9432 44.0773 20.5009 48.0543C19.8392 47.7648 19.117 47.6052 18.363 47.6052C15.2207 47.6052 12.6581 50.3648 12.5309 53.822C11.9359 53.504 11.2681 53.3262 10.5633 53.3262C8.17406 53.3262 6.94506 55.0463 3.73616 57.9757H13.686H15.0946H21.3533H23.0389H32.5035H37.7374H40.7391H45.5863H49.9401H53.7399H66.2637C63.1307 56.7037 59.3329 54.5983 56.6564 54.5983Z" fill="white"/>
<path opacity="0.24" d="M59.0669 119.735C63.2155 119.735 67.125 120.722 70.56 122.467C75.8483 109.917 88.577 101.071 103.442 101.071C107.362 101.071 111.134 101.689 114.66 102.824C116.172 91.6372 126.054 83 138.023 83C150.772 83 161.154 92.8007 161.573 105.043C162.756 104.771 163.99 104.627 165.259 104.627C170.97 104.627 175.976 107.538 178.784 111.911C183.088 108.015 188.47 106.534 192.525 106.978C200.584 107.862 207.675 109.903 221.242 115.928C228.816 119.29 241.986 128.171 242 129H29C37.9786 128.406 51.3101 119.735 59.0669 119.735Z" fill="white"/>
</svg>
