<svg width="16" height="16" viewBox="0 0 16 16" fill="none" xmlns="http://www.w3.org/2000/svg">
<path fill-rule="evenodd" clip-rule="evenodd" d="M13.4371 2.12445C16.0034 4.07349 16.495 8.20018 14.4774 11.6982C12.454 15.1961 8.63597 16.8308 5.66384 15.5848C4.89223 15.259 4.20064 14.9161 3.3833 14.4417L7.34424 7.58289L11.3052 0.724121C12.1225 1.1928 12.7741 1.61576 13.4371 2.12445Z" fill="url(#paint0_linear_1751_16253)"/>
<path fill-rule="evenodd" clip-rule="evenodd" d="M11.7512 1.03852C14.6605 2.71892 15.3063 7.05137 13.1858 10.7208C11.0653 14.3903 6.99008 15.9964 4.08082 14.316C1.17156 12.6356 0.525693 8.3031 2.6462 4.63366C4.76098 0.964215 8.83623 -0.64188 11.7512 1.03852Z" fill="#FCCE3A"/>
<path fill-rule="evenodd" clip-rule="evenodd" d="M11.3054 0.718494C14.3804 2.49606 15.1006 7.0057 12.9172 10.7952C10.7281 14.5846 6.46427 16.2136 3.38354 14.4417C0.308528 12.6642 -0.411643 8.15454 1.77173 4.36507C3.96082 0.575603 8.2304 -1.05907 11.3054 0.718494Z" fill="url(#paint1_radial_1751_16253)"/>
<path fill-rule="evenodd" clip-rule="evenodd" d="M10.2536 2.11894C12.557 3.44497 13.0371 6.92008 11.3281 9.88078C9.61913 12.8415 6.37265 14.1618 4.06925 12.83C1.76584 11.504 1.28573 8.02891 2.99471 5.06821C4.70368 2.10751 7.95017 0.787197 10.2536 2.11894Z" fill="url(#paint2_radial_1751_16253)"/>
<path opacity="0.5" fill-rule="evenodd" clip-rule="evenodd" d="M4.24653 6.23986C5.86406 3.4392 8.93907 2.18747 11.1167 3.44491C11.4311 3.62781 11.7054 3.84501 11.9455 4.10221C11.5968 3.26201 11.0253 2.5647 10.248 2.11317C7.94455 0.787139 4.69807 2.10745 2.98909 5.06244C1.28012 8.02314 1.76023 11.4982 4.06363 12.8243C4.22939 12.9214 4.40086 13.0015 4.57804 13.07C3.01196 11.5783 2.81762 8.72045 4.24653 6.23986Z" fill="url(#paint3_radial_1751_16253)"/>
<path fill-rule="evenodd" clip-rule="evenodd" d="M3.75489 5.50816C5.32097 2.79894 8.17308 1.46148 10.4079 2.2731C10.4765 2.30168 10.5508 2.32455 10.6194 2.35884C10.5565 2.31311 10.4993 2.2731 10.4365 2.22738C10.3793 2.18737 10.3164 2.15308 10.2536 2.11878C7.95017 0.792754 4.70368 2.11307 2.99471 5.06805C1.28573 8.02875 1.76584 11.5039 4.06925 12.8299C4.13212 12.8642 4.19499 12.8985 4.25786 12.9328C4.32645 12.9671 4.39504 13.0014 4.46363 13.0299C4.40076 12.9842 4.3436 12.9385 4.28644 12.887C2.45744 11.3553 2.1888 8.21166 3.75489 5.50816Z" fill="url(#paint4_linear_1751_16253)"/>
<defs>
<linearGradient id="paint0_linear_1751_16253" x1="6.94895" y1="16.4995" x2="14.8714" y2="2.77752" gradientUnits="userSpaceOnUse">
<stop stop-color="#E86F0C"/>
<stop offset="0.6877" stop-color="#FC940D"/>
<stop offset="1" stop-color="#E86F0C"/>
</linearGradient>
<radialGradient id="paint1_radial_1751_16253" cx="0" cy="0" r="1" gradientUnits="userSpaceOnUse" gradientTransform="translate(4.50484 0.437456) scale(13.8452 13.8452)">
<stop stop-color="#FCF80D"/>
<stop offset="1" stop-color="#FC9C0D"/>
</radialGradient>
<radialGradient id="paint2_radial_1751_16253" cx="0" cy="0" r="1" gradientUnits="userSpaceOnUse" gradientTransform="translate(0.521665 -0.934867) scale(16.9174 16.9174)">
<stop stop-color="#FCF80D"/>
<stop offset="1" stop-color="#F78A0C"/>
</radialGradient>
<radialGradient id="paint3_radial_1751_16253" cx="0" cy="0" r="1" gradientUnits="userSpaceOnUse" gradientTransform="translate(9.95486 8.76263) scale(9.77375 9.77374)">
<stop offset="0.5149" stop-color="white"/>
<stop offset="0.6851" stop-color="#FFE2C3"/>
<stop offset="1" stop-color="#FFA84B"/>
</radialGradient>
<linearGradient id="paint4_linear_1751_16253" x1="2.17411" y1="11.7378" x2="8.26659" y2="1.18536" gradientUnits="userSpaceOnUse">
<stop stop-color="#FC940D"/>
<stop offset="1" stop-color="#E86F0C"/>
</linearGradient>
</defs>
</svg>
