<svg width="24" height="24" viewBox="0 0 24 24" fill="none" xmlns="http://www.w3.org/2000/svg">
<path d="M16.374 8.08353L16.3739 8.08358C16.2324 8.52835 16.0934 9.00531 15.9517 9.49159C15.9244 9.58526 15.897 9.67929 15.8695 9.77349C15.698 10.3601 15.5199 10.9583 15.3216 11.548C14.9232 12.7327 14.4536 13.85 13.8242 14.7296C13.2003 15.6016 12.4371 16.2165 11.4462 16.4492C10.4775 16.6768 9.21707 16.5566 7.54831 15.828C6.42459 13.6854 6.52 12.0651 7.19387 10.8127C7.90452 9.49195 9.31237 8.47638 10.9574 7.71105C12.5916 6.9508 14.3916 6.46884 15.7932 6.17697C16.3449 6.0621 16.8318 5.97727 17.2188 5.91672C16.9749 6.4321 16.6671 7.16249 16.374 8.08353Z" stroke="#8FAE98"/>
<path d="M17.3409 5.84229C17.3409 5.84229 16.4598 6.47307 15.2133 7.50436C13.9617 8.53065 12.3497 9.96744 10.8828 11.5444C10.1469 12.3304 9.45605 13.1514 8.86532 13.9574C8.71513 14.1577 8.56995 14.3579 8.43979 14.5582C8.29961 14.7534 8.17445 14.9537 8.0543 15.1489C7.92915 15.3392 7.81901 15.5344 7.71388 15.7196C7.60374 15.9049 7.50862 16.0851 7.42352 16.2653C7.3334 16.4405 7.24829 16.6107 7.18321 16.776C7.11313 16.9412 7.03803 17.0964 6.98797 17.2465C6.9329 17.3967 6.88284 17.5369 6.83778 17.6621C6.79773 17.7922 6.76269 17.9124 6.73265 18.0225C6.66257 18.2378 6.64254 18.413 6.6125 18.5331C6.58747 18.6483 6.57746 18.7134 6.57746 18.7134L5.8916 18.5882C5.8916 18.5882 5.90662 18.5181 5.94166 18.388C5.97671 18.2628 6.00674 18.0626 6.09185 17.8323C6.1319 17.7171 6.17195 17.587 6.22201 17.4468C6.27708 17.3116 6.33716 17.1614 6.40224 17.0062C6.46231 16.846 6.54742 16.6858 6.62752 16.5156C6.70762 16.3454 6.80274 16.1652 6.90286 15.99C7.00299 15.8097 7.10812 15.6195 7.22827 15.4343C7.34342 15.244 7.46857 15.0488 7.60374 14.8586C7.7339 14.6633 7.87408 14.4631 8.02426 14.2678C8.16945 14.0676 8.32464 13.8723 8.48484 13.6721C9.12564 12.8761 9.86156 12.0701 10.6325 11.3041C12.1745 9.7772 13.8516 8.40048 15.1482 7.42426C16.4398 6.43803 17.3409 5.84229 17.3409 5.84229Z" fill="#8FAE98"/>
</svg>
