<svg width="24" height="24" viewBox="0 0 24 24" fill="none" xmlns="http://www.w3.org/2000/svg">
<path d="M16.374 8.08353L16.3739 8.08358C16.2324 8.52831 16.0935 9.00523 15.9518 9.49148C15.9245 9.58519 15.897 9.67925 15.8695 9.77349C15.698 10.3601 15.5199 10.9583 15.3216 11.548C14.9232 12.7327 14.4536 13.85 13.8242 14.7296C13.2003 15.6016 12.4371 16.2165 11.4462 16.4492C10.4775 16.6768 9.21707 16.5566 7.54831 15.828C6.42459 13.6854 6.52 12.0651 7.19387 10.8127C7.90452 9.49195 9.31237 8.47638 10.9574 7.71105C12.5916 6.9508 14.3916 6.46884 15.7932 6.17697C16.3449 6.0621 16.8318 5.97727 17.2188 5.91672C16.9749 6.4321 16.6671 7.16249 16.374 8.08353Z" stroke="#22AA22"/>
<path d="M17.341 5.84229C17.341 5.84229 16.4599 6.47307 15.2134 7.50436C13.9618 8.53065 12.3498 9.96744 10.883 11.5444C10.147 12.3304 9.45618 13.1514 8.86544 13.9574C8.71525 14.1577 8.57007 14.3579 8.43991 14.5582C8.29973 14.7534 8.17458 14.9537 8.05443 15.1489C7.92927 15.3392 7.81913 15.5344 7.714 15.7196C7.60386 15.9049 7.50874 16.0851 7.42364 16.2653C7.33352 16.4405 7.24842 16.6107 7.18334 16.776C7.11325 16.9412 7.03815 17.0964 6.98809 17.2465C6.93302 17.3967 6.88296 17.5369 6.83791 17.6621C6.79786 17.7922 6.76281 17.9124 6.73278 18.0225C6.66269 18.2378 6.64266 18.413 6.61262 18.5331C6.58759 18.6483 6.57758 18.7134 6.57758 18.7134L5.89172 18.5882C5.89172 18.5882 5.90674 18.5181 5.94179 18.388C5.97683 18.2628 6.00686 18.0626 6.09197 17.8323C6.13202 17.7171 6.17207 17.587 6.22213 17.4468C6.2772 17.3116 6.33728 17.1614 6.40236 17.0062C6.46244 16.846 6.54754 16.6858 6.62764 16.5156C6.70774 16.3454 6.80286 16.1652 6.90299 15.99C7.00311 15.8097 7.10824 15.6195 7.22839 15.4343C7.34354 15.244 7.46869 15.0488 7.60386 14.8586C7.73403 14.6633 7.8742 14.4631 8.02439 14.2678C8.16957 14.0676 8.32477 13.8723 8.48497 13.6721C9.12577 12.8761 9.86168 12.0701 10.6326 11.3041C12.1746 9.7772 13.8517 8.40048 15.1483 7.42426C16.4399 6.43803 17.341 5.84229 17.341 5.84229Z" fill="#22AA22"/>
</svg>
