<svg width="16" height="16" viewBox="0 0 16 16" fill="none" xmlns="http://www.w3.org/2000/svg">
<path d="M14.0056 3.50911C14.7218 1.25922 15.5095 0 15.5095 0C15.5095 0 -3.56383 1.90972 2.4876 13.0219C11.1052 16.9189 12.4182 8.49826 14.0056 3.50911Z" fill="#22AA22"/>
<path d="M14.5904 0.656494C14.5904 0.656494 13.5401 1.40845 12.0541 2.63783C10.5621 3.86125 8.64046 5.57403 6.89187 7.45391C6.01459 8.39087 5.19102 9.3696 4.48681 10.3304C4.30778 10.5691 4.13471 10.8079 3.97954 11.0466C3.81244 11.2793 3.66325 11.518 3.52002 11.7508C3.37082 11.9776 3.23953 12.2103 3.1142 12.4311C2.98291 12.6519 2.86952 12.8668 2.76806 13.0816C2.66064 13.2905 2.55919 13.4934 2.4816 13.6903C2.39805 13.8873 2.30854 14.0723 2.24886 14.2513C2.18321 14.4304 2.12353 14.5975 2.06982 14.7467C2.02208 14.9018 1.98031 15.0451 1.9445 15.1763C1.86095 15.433 1.83707 15.6418 1.80127 15.7851C1.77143 15.9223 1.75949 15.9999 1.75949 15.9999L0.941895 15.8507C0.941895 15.8507 0.959797 15.7672 1.00157 15.612C1.04335 15.4628 1.07915 15.2241 1.18061 14.9496C1.22835 14.8123 1.27609 14.6571 1.33577 14.49C1.40142 14.3289 1.47303 14.1499 1.55062 13.9649C1.62223 13.7739 1.72368 13.5829 1.81917 13.38C1.91466 13.1771 2.02805 12.9623 2.1474 12.7534C2.26676 12.5385 2.39209 12.3118 2.53532 12.091C2.67258 11.8642 2.82178 11.6314 2.98291 11.4046C3.13807 11.1719 3.30517 10.9332 3.48421 10.7004C3.65728 10.4617 3.84228 10.229 4.03326 9.99026C4.79715 9.04137 5.67442 8.08054 6.59347 7.16745C8.43158 5.34725 10.4308 3.70608 11.9765 2.54234C13.5162 1.36667 14.5904 0.656494 14.5904 0.656494Z" fill="#4B8B00"/>
</svg>
