<svg width="14" height="15" viewBox="0 0 14 15" fill="none" xmlns="http://www.w3.org/2000/svg">
<path d="M11.374 3.58353L11.3739 3.58358C11.2324 4.02835 11.0934 4.50531 10.9517 4.99159C10.9244 5.08526 10.897 5.17929 10.8695 5.27349C10.698 5.86006 10.5199 6.45834 10.3216 7.04803C9.92317 8.23267 9.45355 9.35003 8.82424 10.2296C8.20034 11.1016 7.43707 11.7165 6.44618 11.9492C5.47747 12.1768 4.21707 12.0566 2.54831 11.328C1.42459 9.18538 1.52 7.56508 2.19387 6.31268C2.90452 4.99195 4.31237 3.97638 5.95743 3.21105C7.59158 2.4508 9.39161 1.96884 10.7932 1.67697C11.3449 1.5621 11.8318 1.47727 12.2188 1.41672C11.9749 1.9321 11.6671 2.66249 11.374 3.58353Z" stroke="#282729"/>
<path d="M12.3409 1.34229C12.3409 1.34229 11.4598 1.97307 10.2133 3.00436C8.96169 4.03065 7.34967 5.46744 5.88284 7.04441C5.14692 7.8304 4.45605 8.65142 3.86532 9.45743C3.71513 9.65768 3.56995 9.85793 3.43979 10.0582C3.29961 10.2534 3.17445 10.4537 3.0543 10.6489C2.92915 10.8392 2.81901 11.0344 2.71388 11.2196C2.60374 11.4049 2.50862 11.5851 2.42352 11.7653C2.3334 11.9405 2.24829 12.1107 2.18321 12.276C2.11313 12.4412 2.03803 12.5964 1.98797 12.7465C1.9329 12.8967 1.88284 13.0369 1.83778 13.1621C1.79773 13.2922 1.76269 13.4124 1.73265 13.5225C1.66257 13.7378 1.64254 13.913 1.6125 14.0331C1.58747 14.1483 1.57746 14.2134 1.57746 14.2134L0.891602 14.0882C0.891602 14.0882 0.90662 14.0181 0.941663 13.888C0.976707 13.7628 1.00674 13.5626 1.09185 13.3323C1.1319 13.2171 1.17195 13.087 1.22201 12.9468C1.27708 12.8116 1.33716 12.6614 1.40224 12.5062C1.46231 12.346 1.54742 12.1858 1.62752 12.0156C1.70762 11.8454 1.80274 11.6652 1.90286 11.49C2.00299 11.3097 2.10812 11.1195 2.22827 10.9343C2.34342 10.744 2.46857 10.5488 2.60374 10.3586C2.7339 10.1633 2.87408 9.96306 3.02426 9.76782C3.16945 9.56757 3.32464 9.37232 3.48484 9.17207C4.12564 8.37608 4.86156 7.57007 5.63252 6.80411C7.17445 5.2772 8.85155 3.90048 10.1482 2.92426C11.4398 1.93803 12.3409 1.34229 12.3409 1.34229Z" fill="#282729"/>
</svg>
