<svg width="56" height="56" viewBox="0 0 56 56" fill="none" xmlns="http://www.w3.org/2000/svg">
<rect x="56" y="56" width="56" height="56" rx="28" transform="rotate(-180 56 56)" fill="white"/>
<rect x="40" y="31" width="5.9999" height="9.99984" rx="2.99995" fill="#DDEEDD"/>
<rect x="10" y="31" width="5.9999" height="9.99984" rx="2.99995" fill="#DDEEDD"/>
<path fill-rule="evenodd" clip-rule="evenodd" d="M27.9995 13C20.2677 13 13.9998 19.2679 13.9998 26.9998V32.9997H15.7498V28.2498C15.7498 21.4844 21.2342 16 27.9996 16C34.7649 16 40.2494 21.4844 40.2494 28.2498V32.9997H41.9993V26.9998C41.9993 19.2679 35.7314 13 27.9995 13Z" fill="#DDEEDD"/>
<path d="M39.9977 19.5014C39.9977 19.1457 39.875 18.7995 39.6398 18.5327C36.6202 15.1062 32.5175 12.9998 27.9979 12.9998C23.4782 12.9998 19.3755 15.1062 16.3559 18.5327C16.1207 18.7995 15.998 19.1457 15.998 19.5014C15.998 21.0472 18.3535 21.8176 19.5422 20.8294C21.9337 18.8411 24.8502 17.6735 27.9979 17.6735C31.1455 17.6735 34.062 18.8411 36.4535 20.8294C37.6422 21.8176 39.9977 21.0472 39.9977 19.5014Z" fill="#DDEEDD"/>
<rect x="12" y="29" width="5.9999" height="13.9998" rx="2.99995" fill="#DDEEDD"/>
<rect x="38" y="29" width="5.9999" height="13.9998" rx="2.99995" fill="#DDEEDD"/>
</svg>
