<svg width="56" height="56" viewBox="0 0 56 56" fill="none" xmlns="http://www.w3.org/2000/svg">
<rect x="56" y="56" width="56" height="56" rx="28" transform="rotate(-180 56 56)" fill="white"/>
<rect x="14.585" y="22.8987" width="28.3457" height="24.2963" rx="2.33333" fill="#22AA22"/>
<rect x="13.1631" y="15.7368" width="28.3457" height="6.47901" rx="2" transform="rotate(-15 13.1631 15.7368)" fill="#22AA22"/>
<path fill-rule="evenodd" clip-rule="evenodd" d="M38.6126 22.8992H34.8783L38.3851 28.9732H42.1195L38.6126 22.8992ZM42.9343 26.3351V24.8992C42.9343 23.8 42.0476 22.908 40.9506 22.8992L42.9343 26.3351ZM28.8026 22.8992H32.5404L36.0472 28.9732H32.3095L28.8026 22.8992ZM26.4647 22.8992H22.7304L26.2372 28.9732H29.9716L26.4647 22.8992ZM16.6547 22.8992H20.3924L23.8993 28.9732H20.1616L16.6547 22.8992ZM14.8754 23.8667C14.6934 24.1681 14.5886 24.5214 14.5886 24.8992V28.9732H17.8237L14.8754 23.8667Z" fill="#DDEEDD"/>
<path fill-rule="evenodd" clip-rule="evenodd" d="M36.2742 9.54442L32.6646 10.5116L37.624 15.4711L41.0524 14.5525C41.1112 14.5367 41.1675 14.516 41.2207 14.4909L36.2742 9.54442ZM41.3344 11.7412L40.705 9.39247C40.5621 8.859 40.0138 8.54242 39.4803 8.68536L38.5325 8.93932L41.3344 11.7412ZM26.7983 12.0835L30.4063 11.1167L35.3658 16.0762L31.7577 17.043L26.7983 12.0835ZM24.54 12.6886L20.9318 13.6554L25.8912 18.6149L29.4995 17.6481L24.54 12.6886ZM15.0642 15.2276L18.6735 14.2605L23.633 19.22L20.0237 20.1871L15.0642 15.2276ZM13.3011 16.3278C13.2823 16.4579 13.2891 16.5939 13.3252 16.7289L14.3797 20.6641C14.5226 21.1976 15.071 21.5142 15.6044 21.3712L17.7654 20.7922L13.3011 16.3278Z" fill="#DDEEDD"/>
<path d="M32.8086 37.0718L26.7345 40.5787L26.7345 33.565L32.8086 37.0718Z" fill="#93D193"/>
</svg>
